<svg xmlns="http://www.w3.org/2000/svg" viewBox="0 0 506.55 454.22"><defs><style>.cls-1{fill:#f8f2e7;}.cls-2{fill:#fff;}.cls-3{fill:#ffc015;}.cls-4,.cls-5{fill:none;stroke:#ffdd4a;stroke-linecap:round;stroke-linejoin:round;}.cls-4{stroke-width:12px;}.cls-5{stroke-width:10px;}</style></defs><g id="Layer_2" data-name="Layer 2"><g id="Layer_1-2" data-name="Layer 1"><path class="cls-1" d="M223.4,30.24S344.47-17,393.69,6.61c39,18.73,73.65,40.53,99.42,142.73,28.54,113.2,12.15,171.6-54.14,241.16C359.24,474.17,242.14,458,187,438.73c-59.06-20.67-31.5-67.92-81.7-98.43-55.06-33.47-94.49-84.65-102.36-128C-11.71,131.9,30.48,81.42,89.54,68.63S223.4,30.24,223.4,30.24Z"/><path class="cls-2" d="M226.68,38S343.78-7.83,391.38,15.1c37.73,18.19,71.22,39.35,96.15,138.59,27.61,109.91,11.75,166.61-52.36,234.15-77.11,81.24-190.37,65.58-243.71,46.84-57.12-20.07-30.47-65.95-79-95.58-53.25-32.49-91.39-82.19-99-124.25C-.71,136.76,40.09,87.74,97.21,75.32S226.68,38,226.68,38Z"/><circle class="cls-3" cx="315.96" cy="280.72" r="85.5"/><path class="cls-4" d="M246.05,297.71a74.07,74.07,0,0,1,72.41-89.33"/><path class="cls-4" d="M265.86,333.63A74.12,74.12,0,0,1,253.3,316.7"/><path class="cls-5" d="M281.86,346q-1.91-1.08-3.74-2.26"/></g></g></svg>