<svg xmlns="http://www.w3.org/2000/svg" viewBox="0 0 1819.47 168.87"><defs><style>.cls-1{fill:#fd4;}.cls-2{fill:#fff;stroke:#fd4;stroke-miterlimit:10;stroke-width:12px;}</style></defs><g id="Layer_2" data-name="Layer 2"><g id="Layer_1-2" data-name="Layer 1"><rect class="cls-1" x="53.69" y="18.25" width="1680.5" height="20.25" rx="10.13"/><circle class="cls-2" cx="66.19" cy="28" r="22"/><path d="M33.84,117.5V91.86H44.07a9.15,9.15,0,0,1,6.17,1.91,7.31,7.31,0,0,1,0,10.51,9,9,0,0,1-6.15,2H36.79V117.5Zm2.95-13.72h7a6.4,6.4,0,0,0,4.29-1.24A4.39,4.39,0,0,0,49.54,99a4.32,4.32,0,0,0-1.44-3.49,6.46,6.46,0,0,0-4.29-1.23h-7Z" transform="translate(-33.84)"/><path d="M56.56,117.5v-13c0-.84,0-1.68-.06-2.53a23.73,23.73,0,0,0-.23-2.54H59l.4,4.46-.4-.11a5.68,5.68,0,0,1,2.18-3.58A6.31,6.31,0,0,1,65,99a6.14,6.14,0,0,1,.88.05,5.65,5.65,0,0,1,.78.16l-.07,2.67a5.64,5.64,0,0,0-1.91-.29,5,5,0,0,0-3,.83,4.78,4.78,0,0,0-1.65,2.1,7,7,0,0,0-.53,2.68V117.5Z" transform="translate(-33.84)"/><path d="M76.72,117.75a8.7,8.7,0,0,1-4.52-1.15,7.87,7.87,0,0,1-3-3.26,12.23,12.23,0,0,1,0-10,7.83,7.83,0,0,1,3-3.27,9.46,9.46,0,0,1,9,0,7.75,7.75,0,0,1,3,3.27,12.12,12.12,0,0,1,0,10,7.78,7.78,0,0,1-3,3.26A8.73,8.73,0,0,1,76.72,117.75Zm0-2.41a5,5,0,0,0,4.12-1.79,8,8,0,0,0,1.46-5.2,7.9,7.9,0,0,0-1.48-5.15,5,5,0,0,0-4.1-1.8,5.06,5.06,0,0,0-4.12,1.8,7.85,7.85,0,0,0-1.5,5.15,8,8,0,0,0,1.46,5.2A5.07,5.07,0,0,0,76.72,115.34Z" transform="translate(-33.84)"/><path d="M89.82,117.5V91h2.92v13l-.4-.36a6.12,6.12,0,0,1,2.34-3.47A7,7,0,0,1,98.86,99a7.61,7.61,0,0,1,4.21,1.15,7.93,7.93,0,0,1,2.83,3.24,11.1,11.1,0,0,1,1,4.93,11.49,11.49,0,0,1-1,5,8,8,0,0,1-2.85,3.31,7.57,7.57,0,0,1-4.19,1.17,7,7,0,0,1-4.18-1.23A6,6,0,0,1,92.34,113l.4-.39v4.86Zm8.5-2.16a4.94,4.94,0,0,0,4.1-1.86,8.11,8.11,0,0,0,1.48-5.2,7.79,7.79,0,0,0-1.48-5.08,5.59,5.59,0,0,0-8.24,0,8.07,8.07,0,0,0-1.44,5.13,8.16,8.16,0,0,0,1.44,5.17A5,5,0,0,0,98.32,115.34Z" transform="translate(-33.84)"/><path d="M111.42,117.5V91h2.92v26.5Z" transform="translate(-33.84)"/><path d="M134.82,115.34a8.4,8.4,0,0,1-3,1.76,11.5,11.5,0,0,1-3.8.65,9.86,9.86,0,0,1-4.84-1.12,7.54,7.54,0,0,1-3.13-3.22,11.9,11.9,0,0,1,0-10,8.14,8.14,0,0,1,3-3.32A8.28,8.28,0,0,1,127.44,99a7.73,7.73,0,0,1,4.14,1.06,6.86,6.86,0,0,1,2.65,3,11.24,11.24,0,0,1,.92,4.75v.54H121.47v-1.91h12l-.94,1.34a7.43,7.43,0,0,0-1.24-4.86,4.54,4.54,0,0,0-3.83-1.7,5,5,0,0,0-4.12,1.86,9.68,9.68,0,0,0,.07,10.46,5.74,5.74,0,0,0,4.59,1.8,8.92,8.92,0,0,0,3-.53,9.4,9.4,0,0,0,2.79-1.6Z" transform="translate(-33.84)"/><path d="M139.57,117.5v-13c0-.84,0-1.68,0-2.53s-.11-1.7-.23-2.54h2.77l.32,3.74-.36.25a6.06,6.06,0,0,1,2.25-3.27,6.34,6.34,0,0,1,3.8-1.15,6,6,0,0,1,4.09,1.29,6.36,6.36,0,0,1,1.85,4l-.86-.47a6.13,6.13,0,0,1,2.32-3.49A6.85,6.85,0,0,1,159.66,99a5.57,5.57,0,0,1,4.5,1.78,8.15,8.15,0,0,1,1.51,5.38V117.5h-2.91V106.26a6.07,6.07,0,0,0-.9-3.69A3.37,3.37,0,0,0,159,101.4a4.46,4.46,0,0,0-3.58,1.55,6.33,6.33,0,0,0-1.31,4.21V117.5H151.2V106.26a5.92,5.92,0,0,0-.92-3.69,3.4,3.4,0,0,0-2.86-1.17A4.52,4.52,0,0,0,143.8,103a6.33,6.33,0,0,0-1.31,4.21V117.5Z" transform="translate(-33.84)"/><circle class="cls-2" cx="304.62" cy="28" r="22"/><path d="M312.75,117.78q-5,0-7.59-2.61t-2.59-7.72V91.86h2.91V107.7q0,3.78,1.84,5.67a7.23,7.23,0,0,0,5.43,1.89,7.14,7.14,0,0,0,5.37-1.9A7.9,7.9,0,0,0,320,107.7V91.86h3v15.59c0,3.39-.87,6-2.6,7.71S316.07,117.78,312.75,117.78Z" transform="translate(-33.84)"/><path d="M334.82,117.75a10.59,10.59,0,0,1-7.24-2.34l1-2.16a10.42,10.42,0,0,0,3,1.64,10.69,10.69,0,0,0,3.4.52,5.73,5.73,0,0,0,3.11-.7,2.29,2.29,0,0,0,1.06-2,2.16,2.16,0,0,0-.72-1.71,5.61,5.61,0,0,0-2.37-1l-3.06-.72a6.82,6.82,0,0,1-3.51-1.8,4.33,4.33,0,0,1-1.24-3.1,4.62,4.62,0,0,1,.86-2.79,5.83,5.83,0,0,1,2.41-1.89,9,9,0,0,1,3.68-.68,10.47,10.47,0,0,1,3.6.61,7.68,7.68,0,0,1,2.84,1.76l-1,2.13a9.71,9.71,0,0,0-2.65-1.61,7.92,7.92,0,0,0-2.82-.52,5.09,5.09,0,0,0-3,.76,2.38,2.38,0,0,0-1.06,2,2.35,2.35,0,0,0,.66,1.76,4.59,4.59,0,0,0,2.14,1l3.06.76a7.23,7.23,0,0,1,3.77,1.78,4.67,4.67,0,0,1-.71,6.89A8.54,8.54,0,0,1,334.82,117.75Z" transform="translate(-33.84)"/><path d="M361.39,115.34a8.49,8.49,0,0,1-3,1.76,11.54,11.54,0,0,1-3.8.65,9.84,9.84,0,0,1-4.84-1.12,7.62,7.62,0,0,1-3.14-3.22,11.95,11.95,0,0,1,0-10,8.18,8.18,0,0,1,3-3.32A8.34,8.34,0,0,1,354,99a7.73,7.73,0,0,1,4.14,1.06,6.84,6.84,0,0,1,2.64,3,11.09,11.09,0,0,1,.92,4.75v.54H348v-1.91h12l-.94,1.34a7.49,7.49,0,0,0-1.24-4.86,4.58,4.58,0,0,0-3.84-1.7,5,5,0,0,0-4.12,1.86,9.73,9.73,0,0,0,.07,10.46,5.77,5.77,0,0,0,4.59,1.8,9,9,0,0,0,3.05-.53,9.4,9.4,0,0,0,2.79-1.6Z" transform="translate(-33.84)"/><path d="M366.14,117.5v-13c0-.84,0-1.68-.05-2.53s-.12-1.7-.24-2.54h2.77l.4,4.46-.4-.11a5.72,5.72,0,0,1,2.18-3.58A6.71,6.71,0,0,1,375.45,99a5.82,5.82,0,0,1,.77.16l-.07,2.67a5.6,5.6,0,0,0-1.91-.29,5,5,0,0,0-3,.83,4.85,4.85,0,0,0-1.65,2.1,7,7,0,0,0-.52,2.68V117.5Z" transform="translate(-33.84)"/><path d="M263.58,160.7V135.06h10.19a9.73,9.73,0,0,1,6.35,1.84,7.28,7.28,0,0,1,0,10.49,9.52,9.52,0,0,1-6.31,1.89l2.66-.5a3.86,3.86,0,0,1,2.41.77,5.33,5.33,0,0,1,1.62,2.47l3.24,8.68h-3.13l-3.17-8.54a3.67,3.67,0,0,0-1.67-2.14,6.44,6.44,0,0,0-2.83-.52h-6.41v11.2Zm2.91-13.65h7a6.83,6.83,0,0,0,4.45-1.22,4.45,4.45,0,0,0,1.46-3.6,4.3,4.3,0,0,0-1.44-3.55,7,7,0,0,0-4.47-1.17h-7Z" transform="translate(-33.84)"/><path d="M303,158.54a8.49,8.49,0,0,1-3,1.76,11.54,11.54,0,0,1-3.8.65,9.84,9.84,0,0,1-4.84-1.12,7.62,7.62,0,0,1-3.14-3.22,11.95,11.95,0,0,1,0-10,8.18,8.18,0,0,1,3-3.32,8.34,8.34,0,0,1,4.45-1.18,7.73,7.73,0,0,1,4.14,1.06,6.84,6.84,0,0,1,2.64,3,11.09,11.09,0,0,1,.92,4.75v.54H289.64v-1.91h12l-.94,1.34a7.49,7.49,0,0,0-1.24-4.86,4.58,4.58,0,0,0-3.84-1.7,5,5,0,0,0-4.12,1.86,9.73,9.73,0,0,0,.07,10.46,5.77,5.77,0,0,0,4.59,1.8,9,9,0,0,0,3.05-.53,9.4,9.4,0,0,0,2.79-1.6Z" transform="translate(-33.84)"/><path d="M313.87,161a10.59,10.59,0,0,1-7.24-2.34l1-2.16a10.34,10.34,0,0,0,3,1.64,10.64,10.64,0,0,0,3.4.52,5.73,5.73,0,0,0,3.11-.7,2.29,2.29,0,0,0,1.06-2,2.16,2.16,0,0,0-.72-1.71,5.61,5.61,0,0,0-2.37-1l-3.06-.72a6.78,6.78,0,0,1-3.51-1.8,4.33,4.33,0,0,1-1.24-3.1,4.62,4.62,0,0,1,.86-2.79,5.83,5.83,0,0,1,2.41-1.89,9,9,0,0,1,3.67-.68,10.47,10.47,0,0,1,3.6.61,7.64,7.64,0,0,1,2.85,1.76l-1,2.13a9.71,9.71,0,0,0-2.65-1.61,7.94,7.94,0,0,0-2.83-.52,5.06,5.06,0,0,0-3,.76,2.38,2.38,0,0,0-1.06,2.05,2.35,2.35,0,0,0,.66,1.76,4.54,4.54,0,0,0,2.14,1l3.06.76a7.15,7.15,0,0,1,3.76,1.78A4.32,4.32,0,0,1,321,155.8a4.39,4.39,0,0,1-1.91,3.74A8.54,8.54,0,0,1,313.87,161Z" transform="translate(-33.84)"/><path d="M340.44,158.54a8.54,8.54,0,0,1-3.05,1.76,11.44,11.44,0,0,1-3.79.65,9.88,9.88,0,0,1-4.85-1.12,7.6,7.6,0,0,1-3.13-3.22,11.9,11.9,0,0,1,0-10,8.21,8.21,0,0,1,3-3.32,8.31,8.31,0,0,1,4.45-1.18,7.77,7.77,0,0,1,4.14,1.06,6.84,6.84,0,0,1,2.64,3,11.24,11.24,0,0,1,.92,4.75v.54H327.08v-1.91h12l-.93,1.34a7.49,7.49,0,0,0-1.24-4.86,4.58,4.58,0,0,0-3.84-1.7,5,5,0,0,0-4.12,1.86,9.73,9.73,0,0,0,.07,10.46,5.77,5.77,0,0,0,4.59,1.8,8.88,8.88,0,0,0,3-.53,9.15,9.15,0,0,0,2.79-1.6Z" transform="translate(-33.84)"/><path d="M352.14,161a7.78,7.78,0,0,1-4.23-1.14,7.32,7.32,0,0,1-2.81-3.24,11.51,11.51,0,0,1-1-4.95,11.32,11.32,0,0,1,1-5,7.93,7.93,0,0,1,2.82-3.32,7.51,7.51,0,0,1,4.2-1.18,7.07,7.07,0,0,1,4.21,1.22,6.07,6.07,0,0,1,2.34,3.49l-.43.29v-4.57h2.88V160.7h-2.88V156l.43.21a6,6,0,0,1-2.34,3.49A7.08,7.08,0,0,1,352.14,161Zm.57-2.41a4.94,4.94,0,0,0,4.11-1.82,8.16,8.16,0,0,0,1.44-5.17,8,8,0,0,0-1.46-5.15,5,5,0,0,0-4.09-1.8,5.05,5.05,0,0,0-4.16,1.86,8,8,0,0,0-1.49,5.16,7.85,7.85,0,0,0,1.49,5.12A5.12,5.12,0,0,0,352.71,158.54Z" transform="translate(-33.84)"/><path d="M366.79,160.7v-13c0-.84,0-1.68-.06-2.53a23.73,23.73,0,0,0-.23-2.54h2.77l.4,4.46-.4-.11a5.68,5.68,0,0,1,2.18-3.58,6.31,6.31,0,0,1,3.76-1.2,6.14,6.14,0,0,1,.88.05,5.65,5.65,0,0,1,.78.16L376.8,145a5.64,5.64,0,0,0-1.91-.29,5,5,0,0,0-3,.83,4.78,4.78,0,0,0-1.65,2.1,7,7,0,0,0-.53,2.68V160.7Z" transform="translate(-33.84)"/><path d="M387.06,161a8.93,8.93,0,0,1-4.61-1.15,7.79,7.79,0,0,1-3-3.24,12,12,0,0,1,0-9.89,8.08,8.08,0,0,1,3.06-3.33,8.94,8.94,0,0,1,4.68-1.18,10.22,10.22,0,0,1,3.55.63,7.67,7.67,0,0,1,2.82,1.74l-1,2.16a11,11,0,0,0-2.61-1.56,6.89,6.89,0,0,0-2.65-.53,5.46,5.46,0,0,0-4.33,1.84,7.61,7.61,0,0,0-1.61,5.18,7.49,7.49,0,0,0,1.59,5.12,5.49,5.49,0,0,0,4.35,1.8A6.94,6.94,0,0,0,390,158a10.75,10.75,0,0,0,2.63-1.56l1,2.16a8.26,8.26,0,0,1-2.9,1.71A10.55,10.55,0,0,1,387.06,161Z" transform="translate(-33.84)"/><path d="M397.28,160.7V134.2h2.92v12.06l-.47.36a6.2,6.2,0,0,1,2.52-3.33,7.31,7.31,0,0,1,4.07-1.13q6.51,0,6.51,7.16V160.7h-2.91V149.46a5.59,5.59,0,0,0-1-3.69,4,4,0,0,0-3.17-1.17,5.39,5.39,0,0,0-4,1.55,5.72,5.72,0,0,0-1.51,4.18V160.7Z" transform="translate(-33.84)"/><circle class="cls-2" cx="543.05" cy="28" r="22"/><path d="M509.21,117.5V91.86h15.84v2.49H512.12v8.89h12.21v2.48H512.12V117.5Z" transform="translate(-33.84)"/><path d="M528.83,91.72h3.56V95h-3.56Zm.28,25.78V99.39H532V117.5Z" transform="translate(-33.84)"/><path d="M537.68,117.5v-13c0-.84,0-1.68,0-2.53s-.12-1.7-.24-2.54h2.78l.32,3.74-.36.29a6.2,6.2,0,0,1,2.52-3.33A7.33,7.33,0,0,1,546.72,99q6.51,0,6.51,7.16V117.5h-2.91V106.26a5.59,5.59,0,0,0-1-3.69,4,4,0,0,0-3.17-1.17,5.39,5.39,0,0,0-4,1.55,5.72,5.72,0,0,0-1.51,4.18V117.5Z" transform="translate(-33.84)"/><path d="M574.69,117.5h-2.88v-4.86l.43.39a6,6,0,0,1-2.34,3.49,7.06,7.06,0,0,1-4.21,1.23,7.57,7.57,0,0,1-4.19-1.17,7.73,7.73,0,0,1-2.83-3.31,11.64,11.64,0,0,1-1-5,11.38,11.38,0,0,1,1-4.93,7.61,7.61,0,0,1,2.81-3.24A7.71,7.71,0,0,1,565.69,99a7,7,0,0,1,4.21,1.24,6.12,6.12,0,0,1,2.34,3.47l-.47.36V91h2.92Zm-8.42-2.16a4.94,4.94,0,0,0,4.08-1.82,9.87,9.87,0,0,0,0-10.3,4.94,4.94,0,0,0-4.1-1.82,5.1,5.1,0,0,0-4.16,1.8,7.73,7.73,0,0,0-1.5,5.08,8.05,8.05,0,0,0,1.5,5.2A5,5,0,0,0,566.27,115.34Z" transform="translate(-33.84)"/><path d="M580.05,91.72h3.57V95h-3.57Zm.29,25.78V99.39h2.92V117.5Z" transform="translate(-33.84)"/><path d="M588.91,117.5v-13c0-.84,0-1.68,0-2.53s-.12-1.7-.24-2.54h2.77l.33,3.74-.36.29a6.2,6.2,0,0,1,2.52-3.33A7.31,7.31,0,0,1,598,99q6.51,0,6.51,7.16V117.5h-2.91V106.26a5.59,5.59,0,0,0-1-3.69,4,4,0,0,0-3.17-1.17,5.39,5.39,0,0,0-4,1.55,5.72,5.72,0,0,0-1.51,4.18V117.5Z" transform="translate(-33.84)"/><path d="M617.92,125.52a13.22,13.22,0,0,1-7.12-1.87l.5-2.37a15.15,15.15,0,0,0,3.2,1.4,12.4,12.4,0,0,0,3.42.43,5.29,5.29,0,0,0,4-1.38,5.71,5.71,0,0,0,1.35-4.13v-4.89l.39-.47a6.51,6.51,0,0,1-1.35,2.5,6.07,6.07,0,0,1-2.25,1.64,7.57,7.57,0,0,1-3,.58,7.78,7.78,0,0,1-4.23-1.14,7.69,7.69,0,0,1-2.84-3.15,11.31,11.31,0,0,1,0-9.43A7.59,7.59,0,0,1,617,99a7.13,7.13,0,0,1,4.26,1.24,6.06,6.06,0,0,1,2.36,3.47l-.43-.39V99.39h2.92v18q0,4.07-2.07,6.12T617.92,125.52Zm-.36-11a5.13,5.13,0,0,0,4.13-1.75,8.49,8.49,0,0,0,0-9.61,5.16,5.16,0,0,0-4.13-1.75,5.3,5.3,0,0,0-4.19,1.75,8.34,8.34,0,0,0,0,9.63A5.32,5.32,0,0,0,617.56,114.51Z" transform="translate(-33.84)"/><path d="M637.83,117.75a10.55,10.55,0,0,1-7.23-2.34l1-2.16a10.42,10.42,0,0,0,3,1.64,10.69,10.69,0,0,0,3.4.52,5.7,5.7,0,0,0,3.11-.7,2.3,2.3,0,0,0,1.07-2,2.16,2.16,0,0,0-.72-1.71,5.67,5.67,0,0,0-2.38-1l-3.06-.72a6.82,6.82,0,0,1-3.51-1.8,4.33,4.33,0,0,1-1.24-3.1,4.69,4.69,0,0,1,.86-2.79,5.83,5.83,0,0,1,2.41-1.89,9,9,0,0,1,3.68-.68,10.47,10.47,0,0,1,3.6.61,7.68,7.68,0,0,1,2.84,1.76l-1,2.13a9.71,9.71,0,0,0-2.65-1.61,7.92,7.92,0,0,0-2.82-.52,5.09,5.09,0,0,0-3,.76,2.38,2.38,0,0,0-1.06,2,2.35,2.35,0,0,0,.66,1.76,4.59,4.59,0,0,0,2.15,1l3.06.76a7.23,7.23,0,0,1,3.76,1.78,4.36,4.36,0,0,1,1.2,3.15,4.4,4.4,0,0,1-1.9,3.74A8.57,8.57,0,0,1,637.83,117.75Z" transform="translate(-33.84)"/><circle class="cls-2" cx="781.48" cy="28" r="22"/><path d="M750.55,117.5V91.86h3V117.5Z" transform="translate(-33.84)"/><path d="M775.43,117.5h-2.88v-4.86l.43.39a6,6,0,0,1-2.34,3.49,7.08,7.08,0,0,1-4.21,1.23,7.58,7.58,0,0,1-4.2-1.17,7.78,7.78,0,0,1-2.82-3.31,12.8,12.8,0,0,1,0-9.92,7.55,7.55,0,0,1,2.81-3.24A7.71,7.71,0,0,1,766.43,99a7,7,0,0,1,4.21,1.24,6.12,6.12,0,0,1,2.34,3.47l-.47.36V91h2.92ZM767,115.34a5,5,0,0,0,4.09-1.82,9.87,9.87,0,0,0,0-10.3A4.94,4.94,0,0,0,767,101.4a5.12,5.12,0,0,0-4.16,1.8,7.79,7.79,0,0,0-1.49,5.08,8.11,8.11,0,0,0,1.49,5.2A5.05,5.05,0,0,0,767,115.34Z" transform="translate(-33.84)"/><path d="M795.91,115.34a8.49,8.49,0,0,1-3,1.76,11.5,11.5,0,0,1-3.8.65,9.84,9.84,0,0,1-4.84-1.12,7.54,7.54,0,0,1-3.13-3.22,11.9,11.9,0,0,1,0-10,8.18,8.18,0,0,1,3-3.32A8.34,8.34,0,0,1,788.53,99a7.73,7.73,0,0,1,4.14,1.06,6.92,6.92,0,0,1,2.65,3,11.24,11.24,0,0,1,.91,4.75v.54H782.55v-1.91h12l-.94,1.34a7.43,7.43,0,0,0-1.24-4.86,4.56,4.56,0,0,0-3.83-1.7,5,5,0,0,0-4.13,1.86,8,8,0,0,0-1.49,5.13,7.89,7.89,0,0,0,1.57,5.33,5.74,5.74,0,0,0,4.59,1.8,8.92,8.92,0,0,0,3-.53,9.4,9.4,0,0,0,2.79-1.6Z" transform="translate(-33.84)"/><path d="M807.61,117.75a7.78,7.78,0,0,1-4.23-1.14,7.39,7.39,0,0,1-2.81-3.24,12.78,12.78,0,0,1,0-9.91,7.88,7.88,0,0,1,2.83-3.32A7.5,7.5,0,0,1,807.61,99a7.05,7.05,0,0,1,4.21,1.22,6.07,6.07,0,0,1,2.34,3.49l-.43.29V99.39h2.88V117.5h-2.88v-4.68l.43.21a6,6,0,0,1-2.34,3.49A7.06,7.06,0,0,1,807.61,117.75Zm.58-2.41a4.94,4.94,0,0,0,4.1-1.82,8.16,8.16,0,0,0,1.44-5.17,8,8,0,0,0-1.46-5.15,5,5,0,0,0-4.08-1.8,5,5,0,0,0-4.16,1.86,8,8,0,0,0-1.5,5.16,7.8,7.8,0,0,0,1.5,5.12A5.1,5.1,0,0,0,808.19,115.34Z" transform="translate(-33.84)"/><path d="M819.71,101.69v-2.3h11.62v2.3Zm11.55,13.21v2.49a9.32,9.32,0,0,1-1.2.27,8.93,8.93,0,0,1-1.32.09,5.52,5.52,0,0,1-4-1.44,5.72,5.72,0,0,1-1.5-4.32V94.74l2.92-1v17.89a5,5,0,0,0,.41,2.23,2.29,2.29,0,0,0,1.14,1.1,4,4,0,0,0,1.62.31,7,7,0,0,0,1-.07A6.77,6.77,0,0,0,831.26,114.9Z" transform="translate(-33.84)"/><path d="M834.57,91.72h3.57V95h-3.57Zm.29,25.78V99.39h2.92V117.5Z" transform="translate(-33.84)"/><path d="M850.92,117.75a8.7,8.7,0,0,1-4.52-1.15,7.87,7.87,0,0,1-3-3.26,12.23,12.23,0,0,1,0-10,7.83,7.83,0,0,1,3-3.27,9.46,9.46,0,0,1,9,0,7.81,7.81,0,0,1,3,3.27,12.12,12.12,0,0,1,0,10,7.85,7.85,0,0,1-3,3.26A8.73,8.73,0,0,1,850.92,117.75Zm0-2.41a5,5,0,0,0,4.12-1.79,9.84,9.84,0,0,0,0-10.35,5,5,0,0,0-4.1-1.8,5.06,5.06,0,0,0-4.12,1.8,7.85,7.85,0,0,0-1.5,5.15,8,8,0,0,0,1.46,5.2A5.07,5.07,0,0,0,850.92,115.34Z" transform="translate(-33.84)"/><path d="M864,117.5v-13c0-.84,0-1.68,0-2.53s-.12-1.7-.24-2.54h2.77l.33,3.74-.36.29a6.2,6.2,0,0,1,2.52-3.33A7.31,7.31,0,0,1,873.06,99q6.51,0,6.51,7.16V117.5h-2.91V106.26a5.59,5.59,0,0,0-1-3.69,4,4,0,0,0-3.17-1.17,5.39,5.39,0,0,0-4,1.55,5.72,5.72,0,0,0-1.51,4.18V117.5Z" transform="translate(-33.84)"/><circle class="cls-2" cx="1019.91" cy="28" r="22"/><path d="M957.18,117.5V91.86h3V115H973v2.52Z" transform="translate(-33.84)"/><path d="M983.89,117.75a8.69,8.69,0,0,1-4.51-1.15,7.74,7.74,0,0,1-3-3.26,12.23,12.23,0,0,1,0-10,7.71,7.71,0,0,1,3-3.27,9.44,9.44,0,0,1,9,0,7.83,7.83,0,0,1,3,3.27,12.23,12.23,0,0,1,0,10,7.87,7.87,0,0,1-3,3.26A8.7,8.7,0,0,1,983.89,117.75Zm0-2.41a5,5,0,0,0,4.13-1.79,8,8,0,0,0,1.45-5.2A8,8,0,0,0,988,103.2a5.6,5.6,0,0,0-8.23,0,9.82,9.82,0,0,0,0,10.35A5,5,0,0,0,983.89,115.34Z" transform="translate(-33.84)"/><path d="M1001.64,117.5,995,99.39h3l5.58,16h-.93l5.76-16H1011l5.68,16h-.93l5.69-16h2.88l-6.7,18.11h-2.81l-6-16.31h1.58l-5.94,16.31Z" transform="translate(-33.84)"/><path d="M1037.82,117.5V91.86h15.84v2.49h-12.92v8.89h12.2v2.48h-12.2V117.5Z" transform="translate(-33.84)"/><path d="M1057.44,91.72H1061V95h-3.56Zm.29,25.78V99.39h2.91V117.5Z" transform="translate(-33.84)"/><path d="M1082.24,117.5h-2.88v-4.86l.44.39a6,6,0,0,1-2.34,3.49,7.11,7.11,0,0,1-4.22,1.23,7.57,7.57,0,0,1-4.19-1.17,7.87,7.87,0,0,1-2.83-3.31,11.64,11.64,0,0,1-1-5,11.24,11.24,0,0,1,1-4.93,7.59,7.59,0,0,1,2.8-3.24,7.75,7.75,0,0,1,4.23-1.15,7,7,0,0,1,4.22,1.24,6.12,6.12,0,0,1,2.34,3.47l-.47.36V91h2.91Zm-8.42-2.16a5,5,0,0,0,4.09-1.82,9.9,9.9,0,0,0,0-10.3,4.92,4.92,0,0,0-4.1-1.82,5.11,5.11,0,0,0-4.16,1.8,7.79,7.79,0,0,0-1.49,5.08,8.11,8.11,0,0,0,1.49,5.2A5,5,0,0,0,1073.82,115.34Z" transform="translate(-33.84)"/><path d="M1102.73,115.34a8.49,8.49,0,0,1-3,1.76,11.54,11.54,0,0,1-3.8.65,9.9,9.9,0,0,1-4.85-1.12,7.66,7.66,0,0,1-3.13-3.22,11.85,11.85,0,0,1,0-10,8.18,8.18,0,0,1,3-3.32,8.31,8.31,0,0,1,4.45-1.18,7.77,7.77,0,0,1,4.14,1.06,6.84,6.84,0,0,1,2.64,3,11.09,11.09,0,0,1,.92,4.75v.54h-13.68v-1.91h12l-.94,1.34a7.49,7.49,0,0,0-1.24-4.86,4.58,4.58,0,0,0-3.84-1.7,5,5,0,0,0-4.12,1.86,9.73,9.73,0,0,0,.07,10.46,5.77,5.77,0,0,0,4.59,1.8,8.88,8.88,0,0,0,3-.53,9.15,9.15,0,0,0,2.79-1.6Z" transform="translate(-33.84)"/><path d="M1107.48,117.5V91h2.91v26.5Z" transform="translate(-33.84)"/><path d="M1115.76,91.72h3.56V95h-3.56Zm.29,25.78V99.39H1119V117.5Z" transform="translate(-33.84)"/><path d="M1122.06,101.69v-2.3h11.63v2.3Zm11.55,13.21v2.49a8.34,8.34,0,0,1-2.52.36,5.54,5.54,0,0,1-4-1.44,5.72,5.72,0,0,1-1.49-4.32V94.74l2.91-1v17.89a4.81,4.81,0,0,0,.42,2.23,2.23,2.23,0,0,0,1.13,1.1,4,4,0,0,0,1.62.31,7,7,0,0,0,1-.07A6.77,6.77,0,0,0,1133.61,114.9Z" transform="translate(-33.84)"/><path d="M1143.19,118.43l-8.14-19h3.06l6.56,16Zm-6.62,7.24-.62-2.27a14.46,14.46,0,0,0,2.79-.92,6,6,0,0,0,1.91-1.35,7.19,7.19,0,0,0,1.35-2.19l1.15-2.67.65-.9,6.63-16h2.91l-8.46,19.76a12.6,12.6,0,0,1-2.19,3.51,8.55,8.55,0,0,1-2.76,2A14.32,14.32,0,0,1,1136.57,125.67Z" transform="translate(-33.84)"/><circle class="cls-2" cx="1258.34" cy="28" r="22"/><path d="M1255.38,117.5V91.86h2.92V117.5Zm1.37-11.78v-2.48h18.57v2.48Zm16.92,11.78V91.86h2.95V117.5Z" transform="translate(-33.84)"/><path d="M1282.31,91.72h3.56V95h-3.56Zm.29,25.78V99.39h2.91V117.5Z" transform="translate(-33.84)"/><path d="M1299.12,125.52a13.26,13.26,0,0,1-7.13-1.87l.5-2.37a15,15,0,0,0,3.21,1.4,12.4,12.4,0,0,0,3.42.43,5.26,5.26,0,0,0,3.94-1.38,5.71,5.71,0,0,0,1.35-4.13v-4.89l.4-.47a6.79,6.79,0,0,1-1.35,2.5,6.23,6.23,0,0,1-2.25,1.64,7.65,7.65,0,0,1-3,.58,7.78,7.78,0,0,1-4.23-1.14,7.69,7.69,0,0,1-2.84-3.15,11.31,11.31,0,0,1,0-9.43,7.59,7.59,0,0,1,7.07-4.28,7.18,7.18,0,0,1,4.27,1.24,6.1,6.1,0,0,1,2.36,3.47l-.43-.39V99.39h2.91v18q0,4.07-2.07,6.12T1299.12,125.52Zm-.36-11a5.13,5.13,0,0,0,4.12-1.75,8.45,8.45,0,0,0,0-9.61,5.16,5.16,0,0,0-4.12-1.75,5.31,5.31,0,0,0-4.2,1.75,8.34,8.34,0,0,0,0,9.63A5.33,5.33,0,0,0,1298.76,114.51Z" transform="translate(-33.84)"/><path d="M1312.91,117.5V91h2.91v12.06l-.47.36a6.3,6.3,0,0,1,2.52-3.33,7.35,7.35,0,0,1,4.07-1.13q6.52,0,6.52,7.16V117.5h-2.92V106.26a5.53,5.53,0,0,0-1-3.69,3.94,3.94,0,0,0-3.16-1.17,5.41,5.41,0,0,0-4,1.55,5.76,5.76,0,0,0-1.51,4.18V117.5Z" transform="translate(-33.84)"/><path d="M1235.31,160.7V135.06h15.84v2.49h-12.92v8.89h12.2v2.48h-12.2V160.7Z" transform="translate(-33.84)"/><path d="M1254.93,134.92h3.56v3.31h-3.56Zm.29,25.78V142.59h2.91V160.7Z" transform="translate(-33.84)"/><path d="M1279.73,160.7h-2.88v-4.86l.44.39a6,6,0,0,1-2.34,3.49,7.11,7.11,0,0,1-4.22,1.23,7.57,7.57,0,0,1-4.19-1.17,7.87,7.87,0,0,1-2.83-3.31,11.64,11.64,0,0,1-1-5,11.38,11.38,0,0,1,1-4.93,7.59,7.59,0,0,1,2.8-3.24,7.73,7.73,0,0,1,4.23-1.15,7,7,0,0,1,4.22,1.24,6.12,6.12,0,0,1,2.34,3.47l-.47.36v-13h2.91Zm-8.42-2.16a5,5,0,0,0,4.09-1.82,9.9,9.9,0,0,0,0-10.3,4.92,4.92,0,0,0-4.1-1.82,5.11,5.11,0,0,0-4.16,1.8,7.79,7.79,0,0,0-1.49,5.08,8.11,8.11,0,0,0,1.49,5.2A5,5,0,0,0,1271.31,158.54Z" transform="translate(-33.84)"/><path d="M1300.22,158.54a8.49,8.49,0,0,1-3,1.76,11.54,11.54,0,0,1-3.8.65,9.81,9.81,0,0,1-4.84-1.12,7.57,7.57,0,0,1-3.14-3.22,11.95,11.95,0,0,1,0-10,8.11,8.11,0,0,1,3-3.32,8.31,8.31,0,0,1,4.45-1.18,7.75,7.75,0,0,1,4.14,1.06,6.84,6.84,0,0,1,2.64,3,11.24,11.24,0,0,1,.92,4.75v.54h-13.68v-1.91h12L1298,151a7.49,7.49,0,0,0-1.24-4.86,4.58,4.58,0,0,0-3.84-1.7,5,5,0,0,0-4.12,1.86,9.73,9.73,0,0,0,.07,10.46,5.77,5.77,0,0,0,4.59,1.8,9,9,0,0,0,3-.53,9.4,9.4,0,0,0,2.79-1.6Z" transform="translate(-33.84)"/><path d="M1305,160.7V134.2h2.91v26.5Z" transform="translate(-33.84)"/><path d="M1313.25,134.92h3.56v3.31h-3.56Zm.29,25.78V142.59h2.91V160.7Z" transform="translate(-33.84)"/><path d="M1319.55,144.89v-2.3h11.63v2.3Zm11.55,13.21v2.49a8.34,8.34,0,0,1-2.52.36,5.54,5.54,0,0,1-4-1.44,5.72,5.72,0,0,1-1.49-4.32V137.94l2.91-1v17.89a4.81,4.81,0,0,0,.42,2.23,2.23,2.23,0,0,0,1.13,1.1,4,4,0,0,0,1.62.31,7,7,0,0,0,1-.07A6.77,6.77,0,0,0,1331.1,158.1Z" transform="translate(-33.84)"/><path d="M1340.68,161.63l-8.14-19h3.06l6.56,16Zm-6.62,7.24-.62-2.27a14.46,14.46,0,0,0,2.79-.92,6,6,0,0,0,1.91-1.35,7.19,7.19,0,0,0,1.35-2.19l1.15-2.67.65-.9,6.63-16h2.91l-8.46,19.76a12.6,12.6,0,0,1-2.19,3.51,8.55,8.55,0,0,1-2.76,2A14.32,14.32,0,0,1,1334.06,168.87Z" transform="translate(-33.84)"/><circle class="cls-2" cx="1496.76" cy="28" r="22"/><circle class="cls-2" cx="1733.76" cy="28" r="22"/><path d="M1474.56,117.78a19,19,0,0,1-3.71-.34,12.7,12.7,0,0,1-3.2-1.08,11.49,11.49,0,0,1-2.66-1.82l1.11-2.26a12.78,12.78,0,0,0,3.91,2.3,13.78,13.78,0,0,0,4.59.68,8.12,8.12,0,0,0,4.75-1.2,3.94,3.94,0,0,0,1.69-3.4,2.85,2.85,0,0,0-.84-2.15,6.07,6.07,0,0,0-2.31-1.29c-1-.33-2.07-.63-3.29-.92s-2.39-.57-3.5-.92a12.92,12.92,0,0,1-2.93-1.31,5.85,5.85,0,0,1-2-2,5.92,5.92,0,0,1-.72-3.06,6.73,6.73,0,0,1,1.15-3.87,7.67,7.67,0,0,1,3.25-2.61,12,12,0,0,1,4.93-.93,15,15,0,0,1,3.38.37,13.31,13.31,0,0,1,3,1.1,10.42,10.42,0,0,1,2.46,1.77l-1.15,2.26a12.3,12.3,0,0,0-3.63-2.26,11.27,11.27,0,0,0-4.07-.72,7.68,7.68,0,0,0-4.68,1.26,4.13,4.13,0,0,0-1.69,3.52,3.32,3.32,0,0,0,.75,2.27,5.23,5.23,0,0,0,2.13,1.39,26.2,26.2,0,0,0,3.13.95c1.24.29,2.45.6,3.6.94a15.22,15.22,0,0,1,3.08,1.24,6,6,0,0,1,2.14,1.91,5.25,5.25,0,0,1,.79,3,6.39,6.39,0,0,1-1.15,3.81,7.48,7.48,0,0,1-3.28,2.52A12.89,12.89,0,0,1,1474.56,117.78Z" transform="translate(-33.84)"/><path d="M1496,117.75a8.73,8.73,0,0,1-4.52-1.15,7.87,7.87,0,0,1-3-3.26,12.23,12.23,0,0,1,0-10,7.83,7.83,0,0,1,3-3.27,9.46,9.46,0,0,1,9,0,7.83,7.83,0,0,1,3,3.27,12.23,12.23,0,0,1,0,10,7.87,7.87,0,0,1-3,3.26A8.73,8.73,0,0,1,1496,117.75Zm0-2.41a5,5,0,0,0,4.12-1.79,8,8,0,0,0,1.46-5.2,7.9,7.9,0,0,0-1.48-5.15,5,5,0,0,0-4.1-1.8,5.06,5.06,0,0,0-4.12,1.8,7.85,7.85,0,0,0-1.5,5.15,8,8,0,0,0,1.46,5.2A5.07,5.07,0,0,0,1496,115.34Z" transform="translate(-33.84)"/><path d="M1509.08,117.5V91H1512v26.5Z" transform="translate(-33.84)"/><path d="M1524.06,117.75a6.27,6.27,0,0,1-4.88-1.8,7.69,7.69,0,0,1-1.64-5.33V99.39h2.92v11.16a5.39,5.39,0,0,0,1,3.6,3.84,3.84,0,0,0,3.06,1.15,5.14,5.14,0,0,0,3.89-1.55,5.76,5.76,0,0,0,1.47-4.14V99.39h2.92V117.5H1530v-3.93l.44-.21a6,6,0,0,1-2.43,3.27A7,7,0,0,1,1524.06,117.75Z" transform="translate(-33.84)"/><path d="M1535.87,101.69v-2.3h11.63v2.3Zm11.55,13.21v2.49a8.34,8.34,0,0,1-2.52.36,5.54,5.54,0,0,1-4-1.44,5.72,5.72,0,0,1-1.49-4.32V94.74l2.91-1v17.89a4.81,4.81,0,0,0,.42,2.23,2.23,2.23,0,0,0,1.13,1.1,4,4,0,0,0,1.62.31,7,7,0,0,0,1-.07A6.77,6.77,0,0,0,1547.42,114.9Z" transform="translate(-33.84)"/><path d="M1550.74,91.72h3.56V95h-3.56Zm.28,25.78V99.39h2.92V117.5Z" transform="translate(-33.84)"/><path d="M1567.08,117.75a8.7,8.7,0,0,1-4.52-1.15,7.87,7.87,0,0,1-3-3.26,12.23,12.23,0,0,1,0-10,7.83,7.83,0,0,1,3-3.27,9.46,9.46,0,0,1,9,0,7.75,7.75,0,0,1,3,3.27,12.12,12.12,0,0,1,0,10,7.78,7.78,0,0,1-3,3.26A8.73,8.73,0,0,1,1567.08,117.75Zm0-2.41a5,5,0,0,0,4.12-1.79,8,8,0,0,0,1.46-5.2,7.9,7.9,0,0,0-1.48-5.15,5,5,0,0,0-4.1-1.8,5.06,5.06,0,0,0-4.12,1.8,7.85,7.85,0,0,0-1.5,5.15,8,8,0,0,0,1.46,5.2A5.07,5.07,0,0,0,1567.08,115.34Z" transform="translate(-33.84)"/><path d="M1580.18,117.5v-13c0-.84,0-1.68,0-2.53s-.12-1.7-.23-2.54h2.77l.32,3.74-.36.29a6.2,6.2,0,0,1,2.52-3.33,7.33,7.33,0,0,1,4.07-1.13q6.51,0,6.51,7.16V117.5h-2.91V106.26a5.59,5.59,0,0,0-1-3.69,4,4,0,0,0-3.17-1.17,5.39,5.39,0,0,0-4,1.55,5.72,5.72,0,0,0-1.51,4.18V117.5Z" transform="translate(-33.84)"/><path d="M1740.45,117.5V91.86h3V117.5Zm16.16,0-14.11-13,13.5-12.6h3.78l-14.47,13.5.14-1.9,15,14Z" transform="translate(-33.84)"/><path d="M1777.57,115.34a8.54,8.54,0,0,1-3,1.76,11.44,11.44,0,0,1-3.79.65,9.88,9.88,0,0,1-4.85-1.12,7.6,7.6,0,0,1-3.13-3.22,11.9,11.9,0,0,1,0-10,8.21,8.21,0,0,1,3-3.32,8.31,8.31,0,0,1,4.45-1.18,7.77,7.77,0,0,1,4.14,1.06,6.84,6.84,0,0,1,2.64,3,11.24,11.24,0,0,1,.92,4.75v.54h-13.68v-1.91h12l-.93,1.34a7.49,7.49,0,0,0-1.24-4.86,4.58,4.58,0,0,0-3.84-1.7,5,5,0,0,0-4.12,1.86,9.73,9.73,0,0,0,.07,10.46,5.77,5.77,0,0,0,4.59,1.8,8.88,8.88,0,0,0,3-.53,9.15,9.15,0,0,0,2.79-1.6Z" transform="translate(-33.84)"/><path d="M1787.86,118.43l-8.13-19h3.06l6.55,16Zm-6.62,7.24-.61-2.27a14.94,14.94,0,0,0,2.79-.92,6,6,0,0,0,1.9-1.35,7.19,7.19,0,0,0,1.35-2.19l1.16-2.67.64-.9,6.63-16H1798l-8.46,19.76a12.37,12.37,0,0,1-2.19,3.51,8.55,8.55,0,0,1-2.76,2A14.32,14.32,0,0,1,1781.24,125.67Z" transform="translate(-33.84)"/><path d="M1691.35,160.7V137.58h-8.93v-2.52h20.84v2.52h-8.93V160.7Z" transform="translate(-33.84)"/><path d="M1710.68,161a7.78,7.78,0,0,1-4.23-1.14,7.39,7.39,0,0,1-2.81-3.24,12.78,12.78,0,0,1,0-9.91,7.93,7.93,0,0,1,2.82-3.32,7.53,7.53,0,0,1,4.2-1.18,7.07,7.07,0,0,1,4.21,1.22,6.07,6.07,0,0,1,2.34,3.49l-.43.29v-4.57h2.88V160.7h-2.88V156l.43.21a6,6,0,0,1-2.34,3.49A7.08,7.08,0,0,1,1710.68,161Zm.57-2.41a4.94,4.94,0,0,0,4.11-1.82,8.16,8.16,0,0,0,1.44-5.17,8,8,0,0,0-1.46-5.15,5,5,0,0,0-4.09-1.8,5,5,0,0,0-4.15,1.86,8,8,0,0,0-1.5,5.16,7.8,7.8,0,0,0,1.5,5.12A5.09,5.09,0,0,0,1711.25,158.54Z" transform="translate(-33.84)"/><path d="M1725.33,160.7V134.2h2.92v26.5Zm12.2,0-9.86-9.26,9.11-8.82h3.71l-10.08,9.65.1-1.83,10.84,10.26Z" transform="translate(-33.84)"/><path d="M1758.38,158.54a8.49,8.49,0,0,1-3,1.76,11.54,11.54,0,0,1-3.8.65,9.84,9.84,0,0,1-4.84-1.12,7.62,7.62,0,0,1-3.14-3.22,11.95,11.95,0,0,1,0-10,8.18,8.18,0,0,1,3-3.32,8.34,8.34,0,0,1,4.45-1.18,7.73,7.73,0,0,1,4.14,1.06,6.84,6.84,0,0,1,2.64,3,11.09,11.09,0,0,1,.92,4.75v.54H1745v-1.91h12l-.94,1.34a7.49,7.49,0,0,0-1.24-4.86,4.58,4.58,0,0,0-3.84-1.7,5,5,0,0,0-4.12,1.86,9.73,9.73,0,0,0,.07,10.46,5.77,5.77,0,0,0,4.59,1.8,9,9,0,0,0,3-.53,9.4,9.4,0,0,0,2.79-1.6Z" transform="translate(-33.84)"/><path d="M1770.08,161a7.78,7.78,0,0,1-4.23-1.14,7.39,7.39,0,0,1-2.81-3.24,12.78,12.78,0,0,1,0-9.91,7.93,7.93,0,0,1,2.82-3.32,7.53,7.53,0,0,1,4.2-1.18,7.07,7.07,0,0,1,4.21,1.22,6.07,6.07,0,0,1,2.34,3.49l-.43.29v-4.57h2.88V160.7h-2.88V156l.43.21a6,6,0,0,1-2.34,3.49A7.08,7.08,0,0,1,1770.08,161Zm.57-2.41a4.94,4.94,0,0,0,4.11-1.82,8.16,8.16,0,0,0,1.44-5.17,8,8,0,0,0-1.46-5.15,5,5,0,0,0-4.09-1.8,5,5,0,0,0-4.15,1.86,8,8,0,0,0-1.5,5.16,7.8,7.8,0,0,0,1.5,5.12A5.09,5.09,0,0,0,1770.65,158.54Z" transform="translate(-33.84)"/><path d="M1789.59,160.7l-6.7-18.11H1786l5.58,15.95h-.93l5.76-15.95h2.55l5.69,15.95h-.93l5.68-15.95h2.88l-6.69,18.11h-2.81l-6-16.31h1.59l-5.94,16.31Z" transform="translate(-33.84)"/><path d="M1822.75,161a7.78,7.78,0,0,1-4.23-1.14,7.32,7.32,0,0,1-2.81-3.24,11.51,11.51,0,0,1-1-4.95,11.32,11.32,0,0,1,1-5,7.93,7.93,0,0,1,2.82-3.32,7.51,7.51,0,0,1,4.2-1.18,7.07,7.07,0,0,1,4.21,1.22,6.07,6.07,0,0,1,2.34,3.49l-.43.29v-4.57h2.88V160.7h-2.88V156l.43.21a6,6,0,0,1-2.34,3.49A7.08,7.08,0,0,1,1822.75,161Zm.57-2.41a4.94,4.94,0,0,0,4.11-1.82,8.16,8.16,0,0,0,1.44-5.17,8,8,0,0,0-1.46-5.15,5,5,0,0,0-4.09-1.8,5.05,5.05,0,0,0-4.16,1.86,8,8,0,0,0-1.49,5.16,7.85,7.85,0,0,0,1.49,5.12A5.12,5.12,0,0,0,1823.32,158.54Z" transform="translate(-33.84)"/><path d="M1843.16,161.63l-8.14-19h3.06l6.55,16Zm-6.63,7.24-.61-2.27a14.7,14.7,0,0,0,2.79-.92,6.09,6.09,0,0,0,1.91-1.35,7.39,7.39,0,0,0,1.35-2.19l1.15-2.67.65-.9,6.62-16h2.92l-8.46,19.76a12.38,12.38,0,0,1-2.2,3.51,8.41,8.41,0,0,1-2.75,2A14.26,14.26,0,0,1,1836.53,168.87Z" transform="translate(-33.84)"/></g></g></svg>