<svg xmlns="http://www.w3.org/2000/svg" viewBox="0 0 720.33 720.33"><g id="Layer_2" data-name="Layer 2"><g id="Layer_1-2" data-name="Layer 1"><path d="M533.29,339c-9.16-7.73-20.41-11.58-33.87-11.58-14.59,0-26,4.15-34.05,12.32s-13.13,19.31-15.22,33.31h98.33C547.44,358.14,542.34,346.83,533.29,339Z"/><path d="M291.3,378.79c-7-3.14-16.89-4.81-29.54-4.9H189.12v77.62h71.65c12.81,0,22.8-1.7,29.91-5.13,12.95-6.39,19.39-18.44,19.39-36.35C310.07,394.84,303.84,384.46,291.3,378.79Z"/><path d="M292.08,318.51c8-4.81,12-13.34,12-25.55,0-13.61-5.28-22.53-15.84-26.92q-13.69-4.52-34.89-4.53H189.12v64.22h71.74Q280,325.73,292.08,318.51Z"/><path d="M360.17,0C161.25,0,0,161.25,0,360.17S161.25,720.33,360.17,720.33,720.33,559.08,720.33,360.17,559.08,0,360.17,0Zm75.24,224.53H561.85v36.23H435.41ZM359.16,460.58a80.44,80.44,0,0,1-20.89,22.89q-14.1,10.66-33.33,14.63A208.33,208.33,0,0,1,263.25,502H130.3V211H272.89q54,.81,76.48,31c9,12.38,13.52,27.16,13.52,44.44,0,17.75-4.5,32.08-13.63,42.88-5.14,6-12.63,11.55-22.54,16.53q22.56,8.15,34.11,25.7t11.49,42.64Q372.32,440.06,359.16,460.58Zm248.53-50.34h-159c1,21.58,8.48,36.74,22.86,45.39,8.71,5.4,19.16,8.12,31.48,8.12q19.44,0,31.64-9.85a47,47,0,0,0,11.75-14.8h58.26q-2.34,19.11-21.13,38.91-29.33,31.33-82.1,31.37-43.61,0-76.84-26.47-33.39-26.46-33.34-86.16,0-56,30.06-85.82t78-29.85q28.56,0,51.33,10.09T588.35,323q13.51,19.2,17.43,44.5C607.33,377.35,607.93,391.65,607.69,410.24Z"/></g></g></svg>