<?xml version="1.0" encoding="utf-8"?>
<!-- Generator: Adobe Illustrator 24.2.1, SVG Export Plug-In . SVG Version: 6.00 Build 0)  -->
<svg version="1.1" id="Layer_1" xmlns="http://www.w3.org/2000/svg" xmlns:xlink="http://www.w3.org/1999/xlink" x="0px" y="0px"
	 viewBox="0 0 720.3 720.3" style="enable-background:new 0 0 720.3 720.3;" xml:space="preserve">
<style type="text/css">
	.st0{fill:#FFFFFF;}
</style>
<g id="Layer_2_1_">
	<g id="Layer_1-2">
		<path class="st0" d="M533.3,339c-9.2-7.7-20.4-11.6-33.9-11.6c-14.6,0-26,4.1-34,12.3s-13.1,19.3-15.2,33.3h98.3
			C547.4,358.1,542.3,346.8,533.3,339z"/>
		<path class="st0" d="M291.3,378.8c-7-3.1-16.9-4.8-29.5-4.9h-72.6v77.6h71.6c12.8,0,22.8-1.7,29.9-5.1c13-6.4,19.4-18.4,19.4-36.4
			C310.1,394.8,303.8,384.5,291.3,378.8z"/>
		<path class="st0" d="M292.1,318.5c8-4.8,12-13.3,12-25.5c0-13.6-5.3-22.5-15.8-26.9c-9.1-3-20.8-4.5-34.9-4.5h-64.2v64.2h71.7
			C273.6,325.7,284,323.3,292.1,318.5z"/>
		<path class="st0" d="M360.2,0C161.3,0,0,161.3,0,360.2s161.3,360.2,360.2,360.2s360.2-161.3,360.2-360.2S559.1,0,360.2,0z
			 M435.4,224.5h126.4v36.2H435.4V224.5z M359.2,460.6c-5.4,8.9-12.5,16.7-20.9,22.9c-9.4,7.1-20.5,12-33.3,14.6
			c-13.7,2.7-27.7,4-41.7,3.9H130.3V211h142.6c36,0.5,61.5,10.9,76.5,31c9,12.4,13.5,27.2,13.5,44.4c0,17.8-4.5,32.1-13.6,42.9
			c-5.1,6-12.6,11.5-22.5,16.5c15,5.4,26.4,14,34.1,25.7s11.5,25.9,11.5,42.6C372.3,431.4,367.9,446.9,359.2,460.6z M607.7,410.2
			h-159c1,21.6,8.5,36.7,22.9,45.4c8.7,5.4,19.2,8.1,31.5,8.1c13,0,23.5-3.3,31.6-9.9c4.9-4.1,8.9-9.1,11.8-14.8h58.3
			c-1.6,12.7-8.6,25.7-21.1,38.9c-19.6,20.9-46.9,31.3-82.1,31.4c-29.1,0-54.7-8.8-76.8-26.5c-22.3-17.6-33.4-46.4-33.3-86.2
			c0-37.3,10-65.9,30.1-85.8c20-19.9,46-29.8,78-29.9c19,0,36.1,3.4,51.3,10.1c15.2,6.7,27.7,17.3,37.7,31.8
			c9,12.8,14.8,27.6,17.4,44.5C607.3,377.4,607.9,391.6,607.7,410.2z"/>
	</g>
</g>
</svg>
