<svg xmlns="http://www.w3.org/2000/svg" width="474.966" height="512.612" viewBox="0 0 474.966 512.612">
  <g id="Group_376" data-name="Group 376" transform="translate(0 0)">
    <g id="Group_115" data-name="Group 115" transform="translate(0)">
      <g id="Group_154" data-name="Group 154" transform="translate(0)">
        <path id="Icon_map-sheild-2" data-name="Icon map-sheild-2" d="M-487.034-1730.6a226.319,226.319,0,0,1,28.655-93.963,14.6,14.6,0,0,0-2.783-17.617l-58.973-56.772a14.233,14.233,0,0,0-18.13-1.417,140.248,140.248,0,0,1-73.484,25.838,147.047,147.047,0,0,1-74.859-12.692,14.987,14.987,0,0,0-12.326-.1,157.509,157.509,0,0,1-74.9,12.8,150.215,150.215,0,0,1-70.079-23.9,13.488,13.488,0,0,0-16.688,1.656l-60.271,57.855a14.462,14.462,0,0,0-2.911,17.217,221.44,221.44,0,0,1,26.051,91.095c.973,16.089-3.79,38.257-14.511,66.886q-7.284,20.281-12.676,41.151a198.789,198.789,0,0,0-4.8,26.657c-.076.682-.119,1.383-.136,2.075a132,132,0,0,0,26.2,80.756c.375.5.776.99,1.187,1.451a309.79,309.79,0,0,0,69.08,58.119c.435.266.88.521,1.341.761a465.664,465.664,0,0,0,81.175,33.086,13.609,13.609,0,0,1,1.57.579l15.3,6.855c5.045,2.313,10.457,4.592,16.09,7.059a66.777,66.777,0,0,1,15.219,10.713,14.764,14.764,0,0,0,20.2.171,72.565,72.565,0,0,1,15.629-10.883q10.435-4.263,20.7-9.04l12.121-5.215c4.14-1.963,9.543-4.267,16.125-6.734q12.2-4.649,24.531-8.971a206.891,206.891,0,0,0,41.3-17.994,354.446,354.446,0,0,0,68.85-57.668c.435-.469.862-.964,1.255-1.476a130.132,130.132,0,0,0,27.076-81.288,19.489,19.489,0,0,0-.23-2.637,290.236,290.236,0,0,0-18.181-65.264c-10.584-29.6-15.27-52.563-13.743-69.14Z" transform="translate(929.867 1902.984)" fill="#c4e9f3"/>
      </g>
      <path id="Icon_map-sheild-3" data-name="Icon map-sheild-3" d="M-563.9-1755.8a187.891,187.891,0,0,1,23.013-76.746,12.645,12.645,0,0,0-2.04-15.27l-47.844-46.553a11.683,11.683,0,0,0-14.954-1.179,113.409,113.409,0,0,1-59.767,21.186,118.72,118.72,0,0,1-61.066-10.49,11.871,11.871,0,0,0-9.875-.085,127.232,127.232,0,0,1-61.142,10.575,121.541,121.541,0,0,1-57.447-19.913,10.457,10.457,0,0,0-13.009,1.374l-49.132,47.723a12.635,12.635,0,0,0-2.193,15.049,183.819,183.819,0,0,1,20.8,73.537c.034.52.052,1.05.034,1.569a145.507,145.507,0,0,1-11.8,54.341q-5.941,16.694-10.371,33.886a166.054,166.054,0,0,0-3.91,21.92c-.059.581-.1,1.169-.111,1.748a109.506,109.506,0,0,0,21.322,66.478q.475.639,1,1.228a252.737,252.737,0,0,0,56.268,47.834c.367.231.735.445,1.119.649a377.588,377.588,0,0,0,66.153,27.247,10.78,10.78,0,0,1,1.229.459l12.479,5.66c4.106,1.9,8.519,3.774,13.111,5.814a54.265,54.265,0,0,1,16.67,13.323,5.239,5.239,0,0,0,7.9.077,59.279,59.279,0,0,1,17.063-13.4q8.5-3.547,16.858-7.444l9.876-4.3c3.372-1.6,7.776-3.482,13.128-5.54q9.948-3.828,19.99-7.392a167.547,167.547,0,0,0,33.648-14.817,289.561,289.561,0,0,0,56.072-47.461c.375-.41.726-.826,1.059-1.263a107.9,107.9,0,0,0,22.048-66.878,16.258,16.258,0,0,0-.2-2.314,241.429,241.429,0,0,0-14.845-53.706c-8.629-24.379-12.436-43.295-11.2-56.943Z" transform="translate(968.693 1942.73)" fill="#fff"/>
    </g>
    <g id="Group_375" data-name="Group 375" transform="translate(110.969 136.573)">
      <path id="Path_1560" data-name="Path 1560" d="M4712.349,449.823V466.9h13.888v23.9h-56.469s-8.708,87.1,56.469,88.063,2.9,0,2.9,0l-2.9-19.693s-42.919,2.274-40.017-49.015c.158-2.821.292,4.835,1.138,0,1.627,3.148,38.878,2.235,38.878,2.235v41.8s7.459,52.395,45.081,59.266c9.482,1.732,5.156,4.794,3.352,11.764-.017,1.065,3.355,5.683,1.663,10.571-2.306,7.32-1.663,17-1.663,17l-3.352,6.385h-24.135l-7.616,9.935v14.688h94.282l-1.545-17.751-9.7-8.417h-26.342l3.8-39.511,29.494-19.555,10.1-16.807,4.585-13.743,3.434,10.843,17.174-3,26.457-17.58,9.909-19.469,3.435-22.332-1.519-17.551-1.916-7.816h-56.974l3.26-25.31h12.77v-18.5h-102.7Z" transform="translate(-4666.135 -444.608)" fill="#fae485"/>
      <path id="Path_1561" data-name="Path 1561" d="M4703.248,473.437l9.331-19.87,10.913,21.759,21.356,3.235-16.407,17.379,5.728,21.387-21.59-11.452-21.156,11.452,5.895-25.4L4679.2,477.044Z" transform="translate(-4592.188 -397.515)" fill="#e25b5b"/>
      <path id="Path_1562" data-name="Path 1562" d="M4690.649,456.214s-.377,52.08,0,51.908,20.044-5.526,20.044-5.526,11.077-13.171,12.021-14.888,5.527-13.542,5.527-13.542V454.5Z" transform="translate(-4507.13 -390.511)" fill="#fff"/>
      <path id="Path_1559" data-name="Path 1559" d="M48.6,281.126a4.321,4.321,0,0,0-4.306,4.305v17.293a4.324,4.324,0,0,0,4.306,4.34H57.25v17.284H5.381a4.323,4.323,0,0,0-4.323,4.323v30.263a60.487,60.487,0,0,0,60.524,60.523h1.089a64.845,64.845,0,0,0,42.142,36.51v32.652H91.844a21.671,21.671,0,0,0-21.6,21.641v8.646a4.324,4.324,0,0,0,4.306,4.307h95.1a4.323,4.323,0,0,0,4.34-4.306v-8.646a21.707,21.707,0,0,0-21.641-21.641H139.4V455.967a64.841,64.841,0,0,0,42.125-36.5h1.114a60.487,60.487,0,0,0,60.507-60.54V328.672a4.324,4.324,0,0,0-4.306-4.307H186.944v-17.3H195.6a4.323,4.323,0,0,0,4.34-4.34V285.433a4.323,4.323,0,0,0-4.34-4.307Zm4.34,8.646h138.34v8.647H52.944ZM65.9,307.064H178.3v86.454a56.2,56.2,0,0,1-112.4,0Zm56.268,25.913a4.323,4.323,0,0,0-3.926,2.423l-9.22,18.677-20.619,3a4.324,4.324,0,0,0-2.423,7.405l14.937,14.514L97.4,399.547a4.323,4.323,0,0,0,6.257,4.568l18.441-9.7,18.449,9.7a4.323,4.323,0,0,0,6.282-4.568l-3.538-20.552,14.937-14.514a4.323,4.323,0,0,0-2.4-7.4L135.218,354.1l-9.229-18.7a4.322,4.322,0,0,0-3.825-2.423Zm64.779,0H234.5v25.947a51.617,51.617,0,0,1-49.927,51.793,64.5,64.5,0,0,0,1.765-8.739,43.208,43.208,0,0,0,39.508-43.054V345.972a4.324,4.324,0,0,0-4.306-4.349H186.944ZM9.7,332.994H57.25v8.647H22.674a4.322,4.322,0,0,0-4.323,4.323v12.97a43.22,43.22,0,0,0,39.516,43.045,64.532,64.532,0,0,0,1.756,8.731A51.616,51.616,0,0,1,9.7,358.933ZM122.1,347.087l6.35,12.859a4.323,4.323,0,0,0,3.259,2.364l14.2,2.069L135.632,374.4a4.322,4.322,0,0,0-1.25,3.833l2.432,14.135L124.106,385.7a4.323,4.323,0,0,0-4.019,0l-12.7,6.671,2.423-14.134a4.326,4.326,0,0,0-1.241-3.835L98.32,364.379,112.5,362.31a4.326,4.326,0,0,0,3.251-2.364Zm64.847,3.191H217.2v8.647a34.367,34.367,0,0,1-30.253,34.306ZM27,350.287H57.25v42.935A34.373,34.373,0,0,1,27,358.932Zm86.462,107.436a58.519,58.519,0,0,0,17.292,0v30.895H113.459ZM91.843,497.264H152.35a12.883,12.883,0,0,1,12.986,12.995v4.306H78.891v-4.306a12.854,12.854,0,0,1,12.952-12.995Z" transform="translate(-1.058 -281.126)"/>
    </g>
  </g>
</svg>
