<svg xmlns="http://www.w3.org/2000/svg" width="474.966" height="512.612" viewBox="0 0 474.966 512.612">
  <g id="Group_377" data-name="Group 377" transform="translate(0 0)">
    <g id="Group_115" data-name="Group 115" transform="translate(0)">
      <g id="Group_154" data-name="Group 154" transform="translate(0)">
        <path id="Icon_map-sheild-2" data-name="Icon map-sheild-2" d="M-487.034-1730.6a226.319,226.319,0,0,1,28.655-93.963,14.6,14.6,0,0,0-2.783-17.617l-58.973-56.772a14.233,14.233,0,0,0-18.13-1.417,140.248,140.248,0,0,1-73.484,25.838,147.047,147.047,0,0,1-74.859-12.692,14.987,14.987,0,0,0-12.326-.1,157.509,157.509,0,0,1-74.9,12.8,150.215,150.215,0,0,1-70.079-23.9,13.488,13.488,0,0,0-16.688,1.656l-60.271,57.855a14.462,14.462,0,0,0-2.911,17.217,221.44,221.44,0,0,1,26.051,91.095c.973,16.089-3.79,38.257-14.511,66.886q-7.284,20.281-12.676,41.151a198.789,198.789,0,0,0-4.8,26.657c-.076.682-.119,1.383-.136,2.075a132,132,0,0,0,26.2,80.756c.375.5.776.99,1.187,1.451a309.79,309.79,0,0,0,69.08,58.119c.435.266.88.521,1.341.761a465.664,465.664,0,0,0,81.175,33.086,13.609,13.609,0,0,1,1.57.579l15.3,6.855c5.045,2.313,10.457,4.592,16.09,7.059a66.777,66.777,0,0,1,15.219,10.713,14.764,14.764,0,0,0,20.2.171,72.565,72.565,0,0,1,15.629-10.883q10.435-4.263,20.7-9.04l12.121-5.215c4.14-1.963,9.543-4.267,16.125-6.734q12.2-4.649,24.531-8.971a206.891,206.891,0,0,0,41.3-17.994,354.446,354.446,0,0,0,68.85-57.668c.435-.469.862-.964,1.255-1.476a130.132,130.132,0,0,0,27.076-81.288,19.489,19.489,0,0,0-.23-2.637,290.236,290.236,0,0,0-18.181-65.264c-10.584-29.6-15.27-52.563-13.743-69.14Z" transform="translate(929.867 1902.984)" fill="#4da09f"/>
      </g>
      <path id="Icon_map-sheild-3" data-name="Icon map-sheild-3" d="M-563.9-1755.8a187.891,187.891,0,0,1,23.013-76.746,12.645,12.645,0,0,0-2.04-15.27l-47.844-46.553a11.683,11.683,0,0,0-14.954-1.179,113.409,113.409,0,0,1-59.767,21.186,118.72,118.72,0,0,1-61.066-10.49,11.871,11.871,0,0,0-9.875-.085,127.232,127.232,0,0,1-61.142,10.575,121.541,121.541,0,0,1-57.447-19.913,10.457,10.457,0,0,0-13.009,1.374l-49.132,47.723a12.635,12.635,0,0,0-2.193,15.049,183.819,183.819,0,0,1,20.8,73.537c.034.52.052,1.05.034,1.569a145.507,145.507,0,0,1-11.8,54.341q-5.941,16.694-10.371,33.886a166.054,166.054,0,0,0-3.91,21.92c-.059.581-.1,1.169-.111,1.748a109.506,109.506,0,0,0,21.322,66.478q.475.639,1,1.228a252.737,252.737,0,0,0,56.268,47.834c.367.231.735.445,1.119.649a377.588,377.588,0,0,0,66.153,27.247,10.78,10.78,0,0,1,1.229.459l12.479,5.66c4.106,1.9,8.519,3.774,13.111,5.814a54.265,54.265,0,0,1,16.67,13.323,5.239,5.239,0,0,0,7.9.077,59.279,59.279,0,0,1,17.063-13.4q8.5-3.547,16.858-7.444l9.876-4.3c3.372-1.6,7.776-3.482,13.128-5.54q9.948-3.828,19.99-7.392a167.547,167.547,0,0,0,33.648-14.817,289.561,289.561,0,0,0,56.072-47.461c.375-.41.726-.826,1.059-1.263a107.9,107.9,0,0,0,22.048-66.878,16.258,16.258,0,0,0-.2-2.314,241.429,241.429,0,0,0-14.845-53.706c-8.629-24.379-12.436-43.295-11.2-56.943Z" transform="translate(968.693 1942.73)" fill="#fff"/>
    </g>
    <g id="Group_169" data-name="Group 169" transform="translate(124.178 115.469)">
      <path id="Path_965" data-name="Path 965" d="M-794.318-1826.725a21.186,21.186,0,0,0-8.823,16.807,4.2,4.2,0,0,0,.062.815l4.954,31.374a335.34,335.34,0,0,1-.241,106.665l-5.087,31.136a4.338,4.338,0,0,0-.062.832,21.115,21.115,0,0,0,9.073,17.16,16.889,16.889,0,0,1,7.306,13.958v-.071a16.735,16.735,0,0,1-5.042,13.409,17.224,17.224,0,0,1-12.686,5.309h-.089a17.922,17.922,0,0,1-16.406-9.617,20.866,20.866,0,0,0-18.83-11.065H-942.531a20.784,20.784,0,0,0-18.812,11.324,18.516,18.516,0,0,1-24.946,7.782,18.382,18.382,0,0,1-7.812-24.854,18.309,18.309,0,0,1,5.414-6.29,21.209,21.209,0,0,0,8.816-16.807,6.357,6.357,0,0,0-.062-.813l-4.973-31.355a335.16,335.16,0,0,1,.231-106.586l5.087-31.2a5.24,5.24,0,0,0,.062-.832,21.289,21.289,0,0,0-9.214-17.169,17.67,17.67,0,0,1-7.458-14A18.6,18.6,0,0,1-991-1854.41a17.73,17.73,0,0,1,12.854-5.609h.08a18.108,18.108,0,0,1,16.4,9.926,21.06,21.06,0,0,0,18.838,11.375h102.359a20.826,20.826,0,0,0,18.812-11.331,18.51,18.51,0,0,1,24.92-7.856,18.383,18.383,0,0,1,7.875,24.838,18.45,18.45,0,0,1-5.452,6.352Z" transform="translate(1000.628 1864.489)" fill="#fae485"/>
      <g id="Group_158" data-name="Group 158" transform="translate(55.076 72.319)">
        <rect id="Rectangle_99" data-name="Rectangle 99" width="110.965" height="136.573" fill="#c4e9f3"/>
        <g id="Group_157" data-name="Group 157" transform="translate(9.824 26.347)">
          <path id="Path_966" data-name="Path 966" d="M6466.754,383.35c28.635-.362,0,54.859,0,54.859S6438.119,383.712,6466.754,383.35Z" transform="translate(-6420.943 -383.348)" fill="#4da09f"/>
          <path id="Path_967" data-name="Path 967" d="M12.727,0c28.635-.362,0,54.859,0,54.859S-15.908.364,12.727,0Z" transform="translate(73.279 33.176) rotate(45)" fill="#4da09f"/>
          <path id="Path_968" data-name="Path 968" d="M12.727,0c28.635-.362,0,54.859,0,54.859S-15.908.364,12.727,0Z" transform="translate(0 52.178) rotate(-47)" fill="#4da09f"/>
        </g>
      </g>
      <g id="Group_156" data-name="Group 156" transform="translate(0 0)">
        <path id="Path_961" data-name="Path 961" d="M277.514,66.126a27.156,27.156,0,1,0-40.2-34.345,10.649,10.649,0,0,1-9.7,5.764H129.184a10.787,10.787,0,0,1-9.7-5.775A26.73,26.73,0,0,0,95.321,17H95.2a26.339,26.339,0,0,0-19.1,8.3,27.472,27.472,0,0,0-7.593,19.966A26.372,26.372,0,0,0,79.695,66.125a11.176,11.176,0,0,1,4.833,8.6l-4.813,29.669a334.081,334.081,0,0,0-.227,105.826L84.2,240.053a11.1,11.1,0,0,1-4.6,8.394,27.164,27.164,0,0,0,15.183,49.062c.255.007.508.011.763.011A27.1,27.1,0,0,0,119.8,282.793a10.649,10.649,0,0,1,9.7-5.753h98.435a10.6,10.6,0,0,1,9.7,5.488c4.538,9.079,13.8,14.47,24.174,14.47h.083a26.466,26.466,0,0,0,26.433-27.831v.068a25.292,25.292,0,0,0-11.046-20.8,11.094,11.094,0,0,1-4.764-8.593l4.845-29.6a334.07,334.07,0,0,0,.251-105.9l-4.7-29.82A11.1,11.1,0,0,1,277.514,66.126ZM272,58.515a20.517,20.517,0,0,0-8.48,16.245,4.8,4.8,0,0,0,.059.79l4.78,30.251a324.692,324.692,0,0,1-.227,102.934l-4.883,30.034a4.682,4.682,0,0,0-.059.805,20.415,20.415,0,0,0,8.723,16.563,16.288,16.288,0,0,1,7.026,13.466v-.067c.587,4.765-1.487,9.44-4.845,12.945a16.494,16.494,0,0,1-12.2,5.126h-.083c-6.792,0-12.837-3.4-15.774-9.278a20.046,20.046,0,0,0-18.1-10.68H129.5A19.989,19.989,0,0,0,111.4,278.574a17.768,17.768,0,1,1-26.287-22.517A20.521,20.521,0,0,0,93.6,239.808a4.806,4.806,0,0,0-.059-.789l-4.78-30.263A324.728,324.728,0,0,1,88.978,105.9l4.887-30.1a4.677,4.677,0,0,0,.059-.8,20.553,20.553,0,0,0-8.861-16.564,17.039,17.039,0,0,1-7.17-13.51A18.067,18.067,0,0,1,82.883,31.8a17.062,17.062,0,0,1,12.358-5.41h.076a17.4,17.4,0,0,1,15.762,9.577,20.246,20.246,0,0,0,18.1,10.968h98.435A19.99,19.99,0,0,0,245.71,36,17.767,17.767,0,1,1,272,58.515Z" transform="translate(-68.487 -16.998)"/>
        <path id="Path_963" data-name="Path 963" d="M218.52,256.873l1.193.05v10.266a4.7,4.7,0,1,0,9.392,0V256.923l1.156-.048c20.935-.7,38.349-18.127,38.84-38.846l.2-4.916a4.7,4.7,0,0,0-4.887-4.888l-4.924.206a39.683,39.683,0,0,0-22.263,7.9c7.757-14.792,5.776-33.9-5.951-46.452l-3.361-3.653a4.7,4.7,0,0,0-6.912,0l-3.331,3.621c-11.916,12.5-13.9,31.679-5.971,46.567a39.62,39.62,0,0,0-22.345-7.983l-4.96-.207a4.7,4.7,0,0,0-4.887,4.888l.2,4.916C180.208,238.747,197.622,256.169,218.52,256.873Zm41.191-39.052c-.382,15.777-13.647,29.05-29.664,29.664A31.318,31.318,0,0,1,259.711,217.821Zm-35.248-41.478a31.309,31.309,0,0,1,0,41.951C213.574,206.563,213.569,187.775,224.463,176.343Zm-5.694,71.144c-16-.594-29.282-13.874-29.664-29.663a31.309,31.309,0,0,1,29.669,29.661Z" transform="translate(-114.339 -78.004)"/>
        <path id="Path_962" data-name="Path 962" d="M269.683,124H151.7a4.7,4.7,0,0,0-4.7,4.7V274.272a4.7,4.7,0,0,0,4.7,4.7H269.683a4.7,4.7,0,0,0,4.7-4.7V128.7A4.7,4.7,0,0,0,269.683,124Zm-4.109,145.576H156.392V133.392H265.574Z" transform="translate(-100.913 -61.19)"/>
      </g>
    </g>
  </g>
</svg>
