<svg xmlns="http://www.w3.org/2000/svg" width="474.966" height="512.612" viewBox="0 0 474.966 512.612">
  <g id="Group_374" data-name="Group 374" transform="translate(0 0)">
    <g id="Group_115" data-name="Group 115" transform="translate(0 0)">
      <g id="Group_154" data-name="Group 154" transform="translate(0)">
        <path id="Icon_map-sheild-2" data-name="Icon map-sheild-2" d="M-487.034-1730.6a226.319,226.319,0,0,1,28.655-93.963,14.6,14.6,0,0,0-2.783-17.617l-58.973-56.772a14.233,14.233,0,0,0-18.13-1.417,140.248,140.248,0,0,1-73.484,25.838,147.047,147.047,0,0,1-74.859-12.692,14.987,14.987,0,0,0-12.326-.1,157.509,157.509,0,0,1-74.9,12.8,150.215,150.215,0,0,1-70.079-23.9,13.488,13.488,0,0,0-16.688,1.656l-60.271,57.855a14.462,14.462,0,0,0-2.911,17.217,221.44,221.44,0,0,1,26.051,91.095c.973,16.089-3.79,38.257-14.511,66.886q-7.284,20.281-12.676,41.151a198.789,198.789,0,0,0-4.8,26.657c-.076.682-.119,1.383-.136,2.075a132,132,0,0,0,26.2,80.756c.375.5.776.99,1.187,1.451a309.79,309.79,0,0,0,69.08,58.119c.435.266.88.521,1.341.761a465.664,465.664,0,0,0,81.175,33.086,13.609,13.609,0,0,1,1.57.579l15.3,6.855c5.045,2.313,10.457,4.592,16.09,7.059a66.777,66.777,0,0,1,15.219,10.713,14.764,14.764,0,0,0,20.2.171,72.565,72.565,0,0,1,15.629-10.883q10.435-4.263,20.7-9.04l12.121-5.215c4.14-1.963,9.543-4.267,16.125-6.734q12.2-4.649,24.531-8.971a206.891,206.891,0,0,0,41.3-17.994,354.446,354.446,0,0,0,68.85-57.668c.435-.469.862-.964,1.255-1.476a130.132,130.132,0,0,0,27.076-81.288,19.489,19.489,0,0,0-.23-2.637,290.236,290.236,0,0,0-18.181-65.264c-10.584-29.6-15.27-52.563-13.743-69.14Z" transform="translate(929.867 1902.984)" fill="#fae485"/>
      </g>
      <path id="Icon_map-sheild-3" data-name="Icon map-sheild-3" d="M-563.9-1755.8a187.891,187.891,0,0,1,23.013-76.746,12.645,12.645,0,0,0-2.04-15.27l-47.844-46.553a11.683,11.683,0,0,0-14.954-1.179,113.409,113.409,0,0,1-59.767,21.186,118.72,118.72,0,0,1-61.066-10.49,11.871,11.871,0,0,0-9.875-.085,127.232,127.232,0,0,1-61.142,10.575,121.541,121.541,0,0,1-57.447-19.913,10.457,10.457,0,0,0-13.009,1.374l-49.132,47.723a12.635,12.635,0,0,0-2.193,15.049,183.819,183.819,0,0,1,20.8,73.537c.034.52.052,1.05.034,1.569a145.507,145.507,0,0,1-11.8,54.341q-5.941,16.694-10.371,33.886a166.054,166.054,0,0,0-3.91,21.92c-.059.581-.1,1.169-.111,1.748a109.506,109.506,0,0,0,21.322,66.478q.475.639,1,1.228a252.737,252.737,0,0,0,56.268,47.834c.367.231.735.445,1.119.649a377.588,377.588,0,0,0,66.153,27.247,10.78,10.78,0,0,1,1.229.459l12.479,5.66c4.106,1.9,8.519,3.774,13.111,5.814a54.265,54.265,0,0,1,16.67,13.323,5.239,5.239,0,0,0,7.9.077,59.279,59.279,0,0,1,17.063-13.4q8.5-3.547,16.858-7.444l9.876-4.3c3.372-1.6,7.776-3.482,13.128-5.54q9.948-3.828,19.99-7.392a167.547,167.547,0,0,0,33.648-14.817,289.561,289.561,0,0,0,56.072-47.461c.375-.41.726-.826,1.059-1.263a107.9,107.9,0,0,0,22.048-66.878,16.258,16.258,0,0,0-.2-2.314,241.429,241.429,0,0,0-14.845-53.706c-8.629-24.379-12.436-43.295-11.2-56.943Z" transform="translate(968.693 1942.73)" fill="#fff"/>
    </g>
    <g id="Group_162" data-name="Group 162" transform="translate(110.969 128.037)">
      <g id="Group_159" data-name="Group 159" transform="translate(3.969 8.688)">
        <path id="Path_969" data-name="Path 969" d="M6382.14,366.6c.644,7,21.494,82.765,49.3,45.379S6382.14,366.6,6382.14,366.6Z" transform="translate(-6289.614 -366.597)" fill="#4da09f"/>
        <path id="Path_970" data-name="Path 970" d="M6437.487,366.6c-.643,7-21.494,82.765-49.3,45.379S6437.487,366.6,6437.487,366.6Z" transform="translate(-6229.864 -366.597)" fill="#4da09f"/>
        <path id="Path_971" data-name="Path 971" d="M34.143,0C53,0,68.286,12.058,68.286,26.931S0,41.8,0,26.931,15.286,0,34.143,0Z" transform="translate(116.951 71.731)" fill="#e2965b"/>
        <path id="Path_972" data-name="Path 972" d="M6376.086,436.7l44.343-41.308h63.256l6.452,16.781,5.618,5.163,63.636-38.275h9.489l8.2,7.294-8.2,9.036-63.252,56.8h-85.2L6403.2,469.423Z" transform="translate(-6335.232 -272.665)" fill="#fefaeb"/>
        <path id="Path_973" data-name="Path 973" d="M6371.3,408.8l49.053,48.215,23.236-29.3-45.636-41.7Z" transform="translate(-6371.301 -220.241)" fill="#c4e9f3"/>
      </g>
      <path id="Path_964" data-name="Path 964" d="M231.484.535c-.081,0-.163.006-.244.011-.111.012-.223.026-.333.044,0,0-21.481,3.012-39.171,11.075-6.447,2.938-12.6,6.515-16.978,11.507-4.374-5-10.54-8.568-16.989-11.507C140.078,3.6,118.6.59,118.6.59a5.767,5.767,0,0,0-6.458,6.458s2.968,21.481,11.03,39.171c4.031,8.845,9.228,17.19,17.7,21.05a20.392,20.392,0,0,0,14.337.888c4.608-1.4,9.107-4.324,13.671-8.655V74.871a39.825,39.825,0,0,0-34.056,39.293h11.374a28.39,28.39,0,1,1,56.78,0h11.363a39.817,39.817,0,0,0-34.1-39.3v-15.7c4.694,4.535,9.324,7.565,14.06,9a20.27,20.27,0,0,0,14.293-.888c8.471-3.861,13.668-12.205,17.7-21.05,8.062-17.691,11.074-39.171,11.074-39.171A5.682,5.682,0,0,0,231.481.535ZM125.885,14.35c6.5,1.195,15.535,2.344,27.143,7.635C160.743,25.5,166.7,30.109,168.5,34.058c.932,2.036.418,4.384.333,6.336a19.586,19.586,0,0,1-3.14,5.693L150.254,30.662,142.2,38.718l15.436,15.424a19.869,19.869,0,0,1-5.737,3.151,8.033,8.033,0,0,1-6.292-.333c-3.949-1.8-8.568-7.765-12.084-15.48-5.29-11.608-6.44-20.629-7.635-27.131Zm97.729,0c-1.194,6.5-2.344,15.524-7.634,27.131-3.516,7.715-8.135,13.68-12.084,15.48a8.143,8.143,0,0,1-6.336.333,19.643,19.643,0,0,1-5.693-3.151l15.425-15.424-8.045-8.056L183.81,46.1a19.631,19.631,0,0,1-3.152-5.7c-.609-2.213.121-4.387.344-6.336,1.8-3.949,7.754-8.557,15.469-12.073,11.608-5.29,20.64-6.44,27.143-7.635Zm30.46,93.312a24.863,24.863,0,0,0-10.908,3.562l-57.5,33c.051-.541.166-1.066.166-1.62a17.182,17.182,0,0,0-17.067-17.078h-62.5a5.682,5.682,0,0,0-4.017,1.676L59.183,170.3a17.115,17.115,0,0,0-17.932,3.873l-20.085,20.1,8.045,8.056,20.1-20.1a5.522,5.522,0,0,1,8.012,0l32.169,32.125a5.574,5.574,0,0,1,0,8.056L69.392,242.5,77.4,250.51l20.085-20.041a17.155,17.155,0,0,0,1.9-21.805l14.936-14.936h31.7V182.365H111.981a5.682,5.682,0,0,0-4.028,1.676L91.541,200.4,68.349,177.161l40.27-40.27h60.144a5.687,5.687,0,1,1,0,11.374H129v11.363h51.122a5.683,5.683,0,0,0,2.852-.755l65.848-37.784a14.861,14.861,0,0,1,5.915-2.1,3.517,3.517,0,0,1,3.318,1.165,5.562,5.562,0,0,1,0,8.012l-63,54.2H157.611v11.363H197.2a5.682,5.682,0,0,0,3.684-1.387l64.882-55.827c.114-.077.225-.159.333-.244a17.144,17.144,0,0,0,0-24.113,15.885,15.885,0,0,0-12.029-4.494Z" transform="translate(-21.166 -0.528)"/>
    </g>
  </g>
</svg>
