<svg xmlns="http://www.w3.org/2000/svg" viewBox="0 0 195.31 195.31"><defs><style>.cls-1{fill:#33326e;}</style></defs><g id="Layer_2" data-name="Layer 2"><g id="Layer_1-2" data-name="Layer 1"><path class="cls-1" d="M146.35,163.14a247.45,247.45,0,0,1-54.9.62c-19-2-30.46-5.57-31.64-12.62q-1.22-6.94-1.9-14.47c-1.66-18.23-1-37.65,1-56.41.43-3.91.88-7.47,1.34-10.61.17-1.11.32-2.09.45-2.92.06-.39.11-.68.15-.88.32-2.8,2.58-7.6,6.76-15.33l1-1.8c1.6-2.91,3.31-5.93,5-8.88.6-1,1.16-2,1.66-2.84l.54-.92c1.58-3.15,3.87-5.18,6.78-5.75,3.17-.62,6,.55,8.53,2.64a18.32,18.32,0,0,1,1.41,1.27,40,40,0,0,1,5.23,2c5.24,2.51,8,5.74,8.48,9,5.18,6.9,2.76,13.29-3.81,17a23.68,23.68,0,0,1-3.61,1.64,20,20,0,0,1-4.43,3c-.64.35-1.34.71-2.07,1.08-1.32.66-2.72,1.32-4.12,2l-.66.29A16.62,16.62,0,0,0,87,73a72.25,72.25,0,0,0-.31,9.76c.06,3.22.25,6.68.51,10.19.12,1.58.25,3.07.38,4.42,0,.18,0,.35,0,.5a53.32,53.32,0,0,1,8.29,18.38c.12.49.22,1,.32,1.45a44.61,44.61,0,0,1,13.9-6.08,72.15,72.15,0,0,1,25.22-1.6l1.13.13c15.88-13.06,31-14.45,43.48-8.58a25.84,25.84,0,0,1,5.6,3.42l.41.4a64.78,64.78,0,0,1,7.7,10.09,97.68,97.68,0,1,0-17.88,40.75C167.73,159.37,157.79,161.67,146.35,163.14Z"/></g></g></svg>