<svg xmlns="http://www.w3.org/2000/svg" viewBox="0 0 195.31 195.31"><defs><style>.cls-1{fill:#33326e;}</style></defs><g id="Layer_2" data-name="Layer 2"><g id="Layer_1-2" data-name="Layer 1"><path class="cls-1" d="M97.65,0a97.66,97.66,0,1,0,97.66,97.65A97.65,97.65,0,0,0,97.65,0Zm15.66,167.65c0,.83-.41,1.65-1.24,1.65h-3.29c0,2.88-5,5.35-11.13,5.35s-11.53-2.47-11.53-5.35h-3.3a1.83,1.83,0,0,1-1.23-1.65v-3.29a1.83,1.83,0,0,1,1.23-1.65h29.25c.83,0,1.24.82,1.24,1.65ZM122,153.47a2.21,2.21,0,0,1-2.06,2.05H75.41a1.94,1.94,0,0,1-2.06-2.05v-5.36a1.94,1.94,0,0,1,2.06-2.06H119.9a2.21,2.21,0,0,1,2.06,2.06ZM131,114.92c-.41.83-.82,1.65-.41,2.47v4.12a39.12,39.12,0,0,1-2.47,14.42,2.61,2.61,0,0,1-2.47,2.06H102.19V109.57h9.47a5.63,5.63,0,0,0,5.77-5.77v-2.06a3.71,3.71,0,0,0,.41-2.06,3.89,3.89,0,0,0-4.12-4.12A3.81,3.81,0,0,0,110,99.68a3.71,3.71,0,0,0,.41,2.06v.82h-8.23V84.85A3.1,3.1,0,0,0,103,83.2a4.12,4.12,0,0,0-8.24,0,3.1,3.1,0,0,0,.82,1.65v33.37h-3.7v-2.47a18.48,18.48,0,0,0,.41-2.06A3.81,3.81,0,0,0,88.18,110a4.07,4.07,0,0,0-4.12,3.71,3.18,3.18,0,0,0,.82,2.06v3.7a5.64,5.64,0,0,0,5.77,5.77h4.94V138H69.23a3,3,0,0,1-2.47-2.06,50,50,0,0,1-2.47-14.42c0-1.23.41-2.88.41-4.12a5.91,5.91,0,0,0-.82-2.47A44.77,44.77,0,0,1,50.69,82.79c0-25.54,21-46.14,47-46.14s47,20.6,47,46.14A45.12,45.12,0,0,1,131,114.92Z"/></g></g></svg>