<svg xmlns="http://www.w3.org/2000/svg" viewBox="0 0 195.31 208.23"><defs><style>.cls-1{fill:#8b86be;}.cls-2{opacity:0.1;}.cls-3,.cls-4{fill:#fff;}.cls-4{font-size:20px;font-family:Lato-Bold, Lato;font-weight:700;}.cls-5{letter-spacing:0em;}.cls-6{letter-spacing:-0.01em;}.cls-7{letter-spacing:-0.01em;}.cls-8{letter-spacing:-0.02em;}.cls-9{letter-spacing:-0.01em;}.cls-10{letter-spacing:-0.01em;}.cls-11{letter-spacing:-0.01em;}.cls-12{letter-spacing:-0.03em;}.cls-13{letter-spacing:-0.01em;}</style></defs><g id="Layer_2" data-name="Layer 2"><g id="Layer_1-2" data-name="Layer 1"><circle class="cls-1" cx="97.65" cy="103.47" r="97.65"/><g class="cls-2"><path class="cls-3" d="M109.8,199.85,162.53,85.17a14,14,0,0,0,.25-11,13.58,13.58,0,0,0-3.57-5.2l2.84-6.23a14,14,0,0,0,.26-11,10.58,10.58,0,0,0-1.46-2.45l14.37-31.5a12.14,12.14,0,0,0,.23-9.61A13.21,13.21,0,0,0,169,1.11a12.09,12.09,0,0,0-9.61-.22,13.12,13.12,0,0,0-7.11,6.46l-14.37,31.5a10.35,10.35,0,0,0-2.81.5,14.75,14.75,0,0,0-8,7.06l-.15.33-2.54,5.58L91.93,37.5a14,14,0,0,0-11-.26,14.78,14.78,0,0,0-8,7.06l-.15.33L20.57,159.13a14,14,0,0,0-.26,11,14.43,14.43,0,0,0,7.39,8.13l63,28.75a14.08,14.08,0,0,0,11,.25A14.44,14.44,0,0,0,109.8,199.85ZM147,50.14l4.27,2a4.92,4.92,0,0,1,2.49,6.69l-2.54,5.57L133.5,56.27l2.55-5.58a4.92,4.92,0,0,1,6.69-2.49Zm2.85-8.41L148,40.5l13.32-29.2A2.93,2.93,0,0,1,163,9.87a3.13,3.13,0,0,1,2.5.16,3.18,3.18,0,0,1,1.76,1.79,3.11,3.11,0,0,1-.15,2.51l-13.32,29.2ZM95.3,198.19l-63-28.75a4.92,4.92,0,0,1-2.5-6.68L82.15,48.49l.15-.32A5.36,5.36,0,0,1,85,45.81a5.06,5.06,0,0,1,3.88.19l36.74,16.76,26.25,12a4.94,4.94,0,0,1,2.5,6.69l-52.25,114.5a5,5,0,0,1-2.81,2.68A5.33,5.33,0,0,1,95.3,198.19Z"/><path class="cls-3" d="M120.17,135,142.62,85.8a4.77,4.77,0,0,0-2.32-6.21L92.4,57.73a4.77,4.77,0,0,0-6.21,2.32L63.74,109.26a4.76,4.76,0,0,0,2.32,6.21L114,137.33A4.78,4.78,0,0,0,120.17,135Zm-46-26.12L92.78,68.21l39.37,18-18.57,40.68Z"/></g><text class="cls-4" transform="translate(74.38 89.72)"><tspan class="cls-5">C</tspan><tspan class="cls-6" x="13.2" y="0">r</tspan><tspan class="cls-7" x="20.37" y="0">e</tspan><tspan class="cls-8" x="30.91" y="0">w</tspan><tspan x="46.55" y="0"> </tspan><tspan class="cls-7" x="-47.09" y="24">M</tspan><tspan x="-28.33" y="24">id-</tspan><tspan class="cls-9" x="-4.44" y="24">E</tspan><tspan x="6.84" y="24">me</tspan><tspan class="cls-10" x="34.27" y="24">r</tspan><tspan class="cls-11" x="41.62" y="24">g</tspan><tspan x="52" y="24">enc</tspan><tspan class="cls-12" x="83.6" y="24">y</tspan><tspan x="93.65" y="24"> </tspan><tspan class="cls-13" x="-47.19" y="48">C</tspan><tspan x="-34.17" y="48">ommunic</tspan><tspan class="cls-7" x="48.1" y="48">a</tspan><tspan x="58.11" y="48">tion</tspan></text></g></g></svg>