<svg xmlns="http://www.w3.org/2000/svg" viewBox="0 0 195.31 195.31"><defs><style>.cls-1{fill:#e85979;}.cls-2{opacity:0.1;}.cls-3,.cls-4{fill:#fff;}.cls-4{font-size:20px;font-family:Lato-Bold, Lato;font-weight:700;}.cls-5{letter-spacing:-0.02em;}.cls-6{letter-spacing:-0.01em;}.cls-7{letter-spacing:-0.02em;}.cls-8{letter-spacing:0em;}.cls-9{letter-spacing:-0.01em;}.cls-10{letter-spacing:-0.01em;}.cls-11{letter-spacing:-0.03em;}.cls-12{letter-spacing:-0.01em;}.cls-13{letter-spacing:-0.01em;}</style></defs><g id="Layer_2" data-name="Layer 2"><g id="Layer_1-2" data-name="Layer 1"><circle class="cls-1" cx="97.65" cy="97.65" r="97.65"/><g class="cls-2"><path class="cls-3" d="M170.29,125.85h-6V35.6a18.08,18.08,0,0,0-18.05-18H50a18.07,18.07,0,0,0-18,18.05v90.25h-6a12,12,0,0,0-12,12V168a18.06,18.06,0,0,0,18.05,18H164.28a18.07,18.07,0,0,0,18.05-18V137.88A12.06,12.06,0,0,0,170.29,125.85ZM44,35.6a6,6,0,0,1,6-6h96.26a6,6,0,0,1,6,6v90.25H128.18a12,12,0,0,0-12,12v12H80.05v-12a12.05,12.05,0,0,0-12-12H44ZM170.29,168a6,6,0,0,1-6,6H31.92a6,6,0,0,1-6-6V137.88H68v12a12.06,12.06,0,0,0,12,12h36.1a12.05,12.05,0,0,0,12-12v-12h42.11Z"/><path class="cls-3" d="M87.73,106a6,6,0,0,0,8.51,0l30.27-30.27a6,6,0,1,0-8.4-8.62l-.11.11-26,26-13.8-13.8a6,6,0,1,0-8.64,8.38l.13.13Z"/></g><text class="cls-4" transform="translate(52.72 80.07)"><tspan class="cls-5">P</tspan><tspan x="12.07" y="0">assen</tspan><tspan class="cls-6" x="61.76" y="0">g</tspan><tspan x="72.14" y="0">e</tspan><tspan class="cls-7" x="82.82" y="0">r</tspan><tspan class="cls-8" x="89.86" y="0"> </tspan><tspan class="cls-9" x="-4.12" y="24">E</tspan><tspan x="7.17" y="24">me</tspan><tspan class="cls-10" x="34.6" y="24">r</tspan><tspan class="cls-6" x="41.95" y="24">g</tspan><tspan x="52.33" y="24">enc</tspan><tspan class="cls-11" x="83.93" y="24">y</tspan><tspan x="93.98" y="24"> </tspan><tspan class="cls-12" x="9.98" y="48">B</tspan><tspan x="22.96" y="48">ri</tspan><tspan class="cls-13" x="35.5" y="48">e</tspan><tspan x="46.03" y="48">fing</tspan></text></g></g></svg>