<svg xmlns="http://www.w3.org/2000/svg" viewBox="0 0 197.11 195.31"><defs><style>.cls-1{fill:#33326e;}.cls-2,.cls-3{fill:#fff;}.cls-2{opacity:0.1;}.cls-3{font-size:20px;font-family:Lato-Bold, Lato;font-weight:700;}.cls-4{letter-spacing:0em;}.cls-5{letter-spacing:-0.01em;}.cls-6{letter-spacing:-0.01em;}.cls-7{letter-spacing:-0.02em;}.cls-8{letter-spacing:-0.02em;}.cls-9{letter-spacing:-0.03em;}.cls-10{letter-spacing:-0.1em;}.cls-11{letter-spacing:-0.01em;}</style></defs><g id="Layer_2" data-name="Layer 2"><g id="Layer_1-2" data-name="Layer 1"><circle class="cls-1" cx="99.46" cy="97.65" r="97.65"/><path class="cls-2" d="M174.57,45.18l-1.25.61c-11.95-17.11-26.51-25-37-19.92l-.57.27-.61.31L114.35,36.66c-10.69,5.25-13.1,22-6.86,41.43l-30.59,15c-11-15.67-24-23.56-34.31-20.88a4.78,4.78,0,0,0-1.65.46L17.93,84c-10.71,5.26-13.09,22-7,41.49a5.74,5.74,0,0,0-1,.48L4.37,128.7c-4.93,2.42-5.79,9.7-2.05,17.32s10,11.4,15,9l5.61-2.76a5.1,5.1,0,0,0,1-.47c11.72,16.85,26.38,25.12,37.1,19.86l23-11.29a4.93,4.93,0,0,0,1.37-1c8.38-6.47,10.16-21.68,4.48-39.91l30.48-15c11.7,16.81,26.38,25.12,37,19.93l20.93-10.27.52-.26.57-.28c10.52-5.16,13.16-21.55,6.86-41.43l1.25-.61c5-2.47,5.9-9.75,2.16-17.38S179.5,42.76,174.57,45.18Zm-156,98.3-4.53,2.22a13.66,13.66,0,0,1-4.31-8.76l4.65-2.28c.71,1.45,1.32,3,2,4.44s1.45,3,2.26,4.33Zm6.62-8.69c-9.85-20.07-9.69-38.75-3-42L30,88.91c-1.6,10.55,1.1,24.75,8.3,39.43S55.13,153.85,64.45,159l-7.8,3.83C49.92,166.17,35.05,154.87,25.2,134.79Zm53.36,17.32c-6.73,3.3-21.6-8-31.45-28.07s-9.69-38.75-3-42.05C49,79.61,58.8,84.86,68.05,97.45l-11,5.38c-4.93,2.42-5.79,9.69-2.05,17.32s10,11.39,15,9l11-5.37C85.25,138.77,83.4,149.74,78.56,152.11ZM66.64,119.9a13.64,13.64,0,0,1-4.3-8.77l48.47-23.79L113,91.73l2.15,4.38Zm55-32.42c-9.85-20.07-9.69-38.75-3-42.05l7.81-3.83c-1.6,10.54,1.1,24.74,8.3,39.43s16.79,25.5,26.11,30.69l-7.8,3.83C146.34,118.85,131.47,107.55,121.62,87.48ZM175,104.8c-6.73,3.3-21.6-8-31.45-28.07s-9.69-38.76-3-42.06c4.84-2.37,14.65,2.87,23.9,15.46l-8.77,4.31c-4.93,2.42-5.79,9.69-2,17.32s10,11.39,15,9l8.76-4.3C181.67,91.45,179.82,102.42,175,104.8Zm7.14-41.58L165.25,71.5a13.6,13.6,0,0,1-4.3-8.76l16.87-8.28A13.6,13.6,0,0,1,182.12,63.22Z"/><text class="cls-3" transform="translate(29.23 91.35)"><tspan class="cls-4">C</tspan><tspan class="cls-5" x="13.2" y="0">r</tspan><tspan class="cls-6" x="20.37" y="0">e</tspan><tspan class="cls-7" x="30.91" y="0">w</tspan><tspan x="46.55" y="0"> </tspan><tspan class="cls-8" x="51.41" y="0">E</tspan><tspan x="62.55" y="0">duc</tspan><tspan class="cls-6" x="94.82" y="0">a</tspan><tspan x="104.83" y="0">tion </tspan><tspan x="25.5" y="24">&amp;</tspan><tspan class="cls-9" x="39.97" y="24"> </tspan><tspan class="cls-10" x="44.22" y="24">T</tspan><tspan class="cls-11" x="54.2" y="24">r</tspan><tspan x="61.53" y="24">aining</tspan></text></g></g></svg>