<svg xmlns="http://www.w3.org/2000/svg" viewBox="0 0 195.31 195.31"><defs><style>.cls-1{fill:#ee978d;}.cls-2{opacity:0.1;}.cls-3,.cls-4{fill:#fff;}.cls-4{font-size:20px;font-family:Lato-Bold, Lato;font-weight:700;}.cls-5{letter-spacing:-0.02em;}.cls-6{letter-spacing:-0.01em;}.cls-7{letter-spacing:-0.02em;}.cls-8{letter-spacing:0em;}.cls-9{letter-spacing:-0.01em;}.cls-10{letter-spacing:-0.01em;}.cls-11{letter-spacing:-0.03em;}.cls-12{letter-spacing:-0.01em;}.cls-13{letter-spacing:-0.01em;}</style></defs><g id="Layer_2" data-name="Layer 2"><g id="Layer_1-2" data-name="Layer 1"><circle class="cls-1" cx="97.65" cy="97.65" r="97.65"/><g class="cls-2"><path class="cls-3" d="M151.55,12.09a7.77,7.77,0,0,0-7.05.75l-101.62,67L14,87.48A7.78,7.78,0,0,0,8.51,97l12,45.1a7.78,7.78,0,0,0,9.52,5.51l9.4-2.5,15.2,36.76a7.77,7.77,0,0,0,9.25,4.54l.61-.16,29-11.93a7.77,7.77,0,0,0,4.22-10.14L87.75,140l91.09-.14a7.78,7.78,0,0,0,7.55-9.74L156.33,17.34A7.8,7.8,0,0,0,151.55,12.09Zm-103,114.48-15,4-8-30.07,15-4Zm17.46,42.2L54.63,141.06l4.51-1.2,11.83,0,9.44,23Zm102.7-44.45-104.66,0-9-33.9,89-58.6Z"/></g><text class="cls-4" transform="translate(52.72 80.57)"><tspan class="cls-5">P</tspan><tspan x="12.07" y="0">assen</tspan><tspan class="cls-6" x="61.76" y="0">g</tspan><tspan x="72.14" y="0">e</tspan><tspan class="cls-7" x="82.82" y="0">r</tspan><tspan class="cls-8" x="89.86" y="0"> </tspan><tspan class="cls-9" x="-4.12" y="24">E</tspan><tspan x="7.17" y="24">me</tspan><tspan class="cls-10" x="34.6" y="24">r</tspan><tspan class="cls-6" x="41.95" y="24">g</tspan><tspan x="52.33" y="24">enc</tspan><tspan class="cls-11" x="83.93" y="24">y</tspan><tspan x="93.98" y="24"> </tspan><tspan class="cls-12" x="-29.94" y="48">C</tspan><tspan x="-16.92" y="48">ommunic</tspan><tspan class="cls-13" x="65.35" y="48">a</tspan><tspan x="75.36" y="48">tions</tspan></text></g></g></svg>