<svg xmlns="http://www.w3.org/2000/svg" viewBox="0 0 195.31 195.31"><defs><style>.cls-1{fill:#33326e;}</style></defs><g id="Layer_2" data-name="Layer 2"><g id="Layer_1-2" data-name="Layer 1"><path class="cls-1" d="M97.65,0a97.66,97.66,0,1,0,97.66,97.65A97.65,97.65,0,0,0,97.65,0ZM51.39,122.12a3.12,3.12,0,0,1,0-4.54l5.23-5.23A38.39,38.39,0,0,1,53,103.54H45.61a3.18,3.18,0,0,1-3.3-3.3V86.07a3.26,3.26,0,0,1,3.3-3.3h7.57A38.31,38.31,0,0,1,56.76,74l-5.23-5.22a3.24,3.24,0,0,1,0-4.54l10-10.05a3.24,3.24,0,0,1,4.54,0l5.23,5.23a38.39,38.39,0,0,1,8.81-3.58V48.37a3.18,3.18,0,0,1,3.3-3.3H97.76a3.26,3.26,0,0,1,3.3,3.3V55.8a38.5,38.5,0,0,1,8.8,3.58l5.23-5.23a3.24,3.24,0,0,1,4.54,0l10.73,10.73L107.94,87.31a18.39,18.39,0,0,0-35.77,6,17.67,17.67,0,0,0,12.38,17.06L62.12,132.85ZM91.7,164.49a3.94,3.94,0,0,1-2.2,1.24l-19.12,4.4A4.54,4.54,0,0,1,65,164.77l4.4-19.13a5.84,5.84,0,0,1,1.24-2.2l5.51-5.5,21,21.05Zm13.37-13.37L84,130l49-49,21.11,21.11Zm57.08-56.79L141,73.14l9.63-9.63a4.4,4.4,0,0,1,6.33,0l14.72,14.86a4.53,4.53,0,0,1,.14,6.33Z"/></g></g></svg>